<svg width="4454" height="3083" viewBox="0 0 4454 3083" fill="none" xmlns="http://www.w3.org/2000/svg">
<g clip-path="url(#clip0_78_47)">
<mask id="mask0_78_47" style="mask-type:luminance" maskUnits="userSpaceOnUse" x="0" y="0" width="4454" height="3083">
<path d="M4454 0H0V3083H4454V0Z" fill="white"/>
</mask>
<g mask="url(#mask0_78_47)">
<path d="M4454 0H0V3083H4454V0Z" fill="white"/>
<mask id="mask1_78_47" style="mask-type:luminance" maskUnits="userSpaceOnUse" x="215" y="2055" width="1207" height="563">
<path d="M1408.15 2055.33H229.552C221.983 2055.33 215.848 2061.47 215.848 2069.04V2603.42C215.848 2610.99 221.983 2617.12 229.552 2617.12H1408.15C1415.72 2617.12 1421.85 2610.99 1421.85 2603.42V2069.04C1421.85 2061.47 1415.72 2055.33 1408.15 2055.33Z" fill="white"/>
</mask>
<g mask="url(#mask1_78_47)">
<path d="M1408.15 2055.33H229.552C221.983 2055.33 215.848 2061.47 215.848 2069.04V2603.42C215.848 2610.99 221.983 2617.12 229.552 2617.12H1408.15C1415.72 2617.12 1421.85 2610.99 1421.85 2603.42V2069.04C1421.85 2061.47 1415.72 2055.33 1408.15 2055.33Z" fill="white"/>
<g opacity="0.2">
<path d="M339.189 2110.14C301.364 2110.14 270.666 2140.84 270.666 2178.65C270.666 2216.47 301.364 2247.16 339.189 2247.16C377.014 2247.16 407.712 2216.47 407.712 2178.65C407.712 2140.84 377.014 2110.14 339.189 2110.14ZM339.189 2130.7C350.564 2130.7 359.746 2139.88 359.746 2151.25C359.746 2162.62 350.564 2171.8 339.189 2171.8C327.814 2171.8 318.632 2162.62 318.632 2151.25C318.632 2139.88 327.814 2130.7 339.189 2130.7ZM339.189 2227.98C322.058 2227.98 306.915 2219.21 298.075 2205.92C298.281 2192.29 325.484 2184.82 339.189 2184.82C352.825 2184.82 380.097 2192.29 380.303 2205.92C371.463 2219.21 356.32 2227.98 339.189 2227.98Z" fill="#757575"/>
</g>
<g opacity="0.7">
<mask id="mask2_78_47" style="mask-type:luminance" maskUnits="userSpaceOnUse" x="452" y="2115" width="426" height="62">
<path d="M846.26 2115.28H483.088C466.058 2115.28 452.252 2129.08 452.252 2146.11C452.252 2163.14 466.058 2176.94 483.088 2176.94H846.26C863.29 2176.94 877.095 2163.14 877.095 2146.11C877.095 2129.08 863.29 2115.28 846.26 2115.28Z" fill="white"/>
</mask>
<g mask="url(#mask2_78_47)">
<path d="M846.26 2115.28H483.088C466.058 2115.28 452.252 2129.08 452.252 2146.11C452.252 2163.14 466.058 2176.94 483.088 2176.94H846.26C863.29 2176.94 877.095 2163.14 877.095 2146.11C877.095 2129.08 863.29 2115.28 846.26 2115.28Z" fill="#CCCCCC"/>
</g>
</g>
<mask id="mask3_78_47" style="mask-type:luminance" maskUnits="userSpaceOnUse" x="452" y="2200" width="515" height="43">
<path d="M966.175 2200.92H452.252V2242.03H966.175V2200.92Z" fill="white"/>
</mask>
<g mask="url(#mask3_78_47)">
<mask id="mask4_78_47" style="mask-type:luminance" maskUnits="userSpaceOnUse" x="452" y="2200" width="265" height="43">
<path d="M695.509 2200.92H472.809C461.456 2200.92 452.252 2210.12 452.252 2221.47C452.252 2232.82 461.456 2242.03 472.809 2242.03H695.509C706.862 2242.03 716.066 2232.82 716.066 2221.47C716.066 2210.12 706.862 2200.92 695.509 2200.92Z" fill="white"/>
</mask>
<g mask="url(#mask4_78_47)">
<path d="M695.509 2200.92H472.809C461.456 2200.92 452.252 2210.12 452.252 2221.47C452.252 2232.82 461.456 2242.03 472.809 2242.03H695.509C706.862 2242.03 716.066 2232.82 716.066 2221.47C716.066 2210.12 706.862 2200.92 695.509 2200.92Z" fill="#E0E0E0"/>
</g>
<path opacity="0.1" d="M945.618 2200.92H777.737C766.384 2200.92 757.18 2210.12 757.18 2221.47C757.18 2232.82 766.384 2242.03 777.737 2242.03H945.618C956.972 2242.03 966.175 2232.82 966.175 2221.47C966.175 2210.12 956.972 2200.92 945.618 2200.92Z" fill="black"/>
</g>
<mask id="mask5_78_47" style="mask-type:luminance" maskUnits="userSpaceOnUse" x="270" y="2356" width="1098" height="42">
<path d="M1346.48 2356.78H291.223C279.87 2356.78 270.666 2365.98 270.666 2377.34C270.666 2388.69 279.87 2397.89 291.223 2397.89H1346.48C1357.83 2397.89 1367.04 2388.69 1367.04 2377.34C1367.04 2365.98 1357.83 2356.78 1346.48 2356.78Z" fill="white"/>
</mask>
<g mask="url(#mask5_78_47)">
<path d="M1346.48 2356.78H291.223C279.87 2356.78 270.666 2365.98 270.666 2377.34C270.666 2388.69 279.87 2397.89 291.223 2397.89H1346.48C1357.83 2397.89 1367.04 2388.69 1367.04 2377.34C1367.04 2365.98 1357.83 2356.78 1346.48 2356.78Z" fill="#E0E0E0"/>
</g>
<mask id="mask6_78_47" style="mask-type:luminance" maskUnits="userSpaceOnUse" x="270" y="2438" width="751" height="43">
<path d="M1000.44 2439H291.223C279.87 2439 270.666 2448.2 270.666 2459.55C270.666 2470.9 279.87 2480.1 291.223 2480.1H1000.44C1011.79 2480.1 1020.99 2470.9 1020.99 2459.55C1020.99 2448.2 1011.79 2439 1000.44 2439Z" fill="white"/>
</mask>
<g mask="url(#mask6_78_47)">
<path d="M1000.44 2439H291.223C279.87 2439 270.666 2448.2 270.666 2459.55C270.666 2470.9 279.87 2480.1 291.223 2480.1H1000.44C1011.79 2480.1 1020.99 2470.9 1020.99 2459.55C1020.99 2448.2 1011.79 2439 1000.44 2439Z" fill="#E0E0E0"/>
</g>
<mask id="mask7_78_47" style="mask-type:luminance" maskUnits="userSpaceOnUse" x="270" y="2521" width="861" height="42">
<path d="M1110.07 2521.21H291.223C279.87 2521.21 270.666 2530.41 270.666 2541.76C270.666 2553.11 279.87 2562.32 291.223 2562.32H1110.07C1121.43 2562.32 1130.63 2553.11 1130.63 2541.76C1130.63 2530.41 1121.43 2521.21 1110.07 2521.21Z" fill="white"/>
</mask>
<g mask="url(#mask7_78_47)">
<path d="M1110.07 2521.21H291.223C279.87 2521.21 270.666 2530.41 270.666 2541.76C270.666 2553.11 279.87 2562.32 291.223 2562.32H1110.07C1121.43 2562.32 1130.63 2553.11 1130.63 2541.76C1130.63 2530.41 1121.43 2521.21 1110.07 2521.21Z" fill="#E0E0E0"/>
</g>
</g>
<g opacity="0.4">
<mask id="mask8_78_47" style="mask-type:luminance" maskUnits="userSpaceOnUse" x="215" y="2713" width="1207" height="480">
<path d="M1408.15 2713.04H229.552C221.983 2713.04 215.848 2719.17 215.848 2726.74V3178.92C215.848 3186.48 221.983 3192.62 229.552 3192.62H1408.15C1415.72 3192.62 1421.85 3186.48 1421.85 3178.92V2726.74C1421.85 2719.17 1415.72 2713.04 1408.15 2713.04Z" fill="white"/>
</mask>
<g mask="url(#mask8_78_47)">
<path d="M1408.15 2713.04H229.552C221.983 2713.04 215.848 2719.17 215.848 2726.74V3178.92C215.848 3186.48 221.983 3192.62 229.552 3192.62H1408.15C1415.72 3192.62 1421.85 3186.48 1421.85 3178.92V2726.74C1421.85 2719.17 1415.72 2713.04 1408.15 2713.04Z" fill="white"/>
<g opacity="0.2">
<path d="M339.189 2767.85C301.364 2767.85 270.666 2798.54 270.666 2836.36C270.666 2874.18 301.364 2904.87 339.189 2904.87C377.014 2904.87 407.712 2874.18 407.712 2836.36C407.712 2798.54 377.014 2767.85 339.189 2767.85ZM339.189 2788.4C350.564 2788.4 359.746 2797.58 359.746 2808.96C359.746 2820.33 350.564 2829.51 339.189 2829.51C327.814 2829.51 318.632 2820.33 318.632 2808.96C318.632 2797.58 327.814 2788.4 339.189 2788.4ZM339.189 2885.69C322.058 2885.69 306.915 2876.92 298.075 2863.63C298.281 2849.99 325.484 2842.53 339.189 2842.53C352.825 2842.53 380.097 2849.99 380.303 2863.63C371.463 2876.92 356.32 2885.69 339.189 2885.69Z" fill="#757575"/>
</g>
<mask id="mask9_78_47" style="mask-type:luminance" maskUnits="userSpaceOnUse" x="452" y="2772" width="426" height="63">
<path d="M846.26 2772.99H483.088C466.058 2772.99 452.252 2786.79 452.252 2803.82C452.252 2820.84 466.058 2834.65 483.088 2834.65H846.26C863.29 2834.65 877.095 2820.84 877.095 2803.82C877.095 2786.79 863.29 2772.99 846.26 2772.99Z" fill="white"/>
</mask>
<g mask="url(#mask9_78_47)">
<path d="M846.26 2772.99H483.088C466.058 2772.99 452.252 2786.79 452.252 2803.82C452.252 2820.84 466.058 2834.65 483.088 2834.65H846.26C863.29 2834.65 877.095 2820.84 877.095 2803.82C877.095 2786.79 863.29 2772.99 846.26 2772.99Z" fill="#CCCCCC"/>
</g>
<mask id="mask10_78_47" style="mask-type:luminance" maskUnits="userSpaceOnUse" x="452" y="2858" width="515" height="42">
<path d="M966.175 2858.63H452.252V2899.73H966.175V2858.63Z" fill="white"/>
</mask>
<g mask="url(#mask10_78_47)">
<mask id="mask11_78_47" style="mask-type:luminance" maskUnits="userSpaceOnUse" x="452" y="2858" width="265" height="42">
<path d="M695.509 2858.63H472.809C461.456 2858.63 452.252 2867.83 452.252 2879.18C452.252 2890.53 461.456 2899.73 472.809 2899.73H695.509C706.862 2899.73 716.066 2890.53 716.066 2879.18C716.066 2867.83 706.862 2858.63 695.509 2858.63Z" fill="white"/>
</mask>
<g mask="url(#mask11_78_47)">
<path d="M695.509 2858.63H472.809C461.456 2858.63 452.252 2867.83 452.252 2879.18C452.252 2890.53 461.456 2899.73 472.809 2899.73H695.509C706.862 2899.73 716.066 2890.53 716.066 2879.18C716.066 2867.83 706.862 2858.63 695.509 2858.63Z" fill="#E0E0E0"/>
</g>
<path opacity="0.1" d="M945.618 2858.63H777.737C766.384 2858.63 757.18 2867.83 757.18 2879.18C757.18 2890.53 766.384 2899.73 777.737 2899.73H945.618C956.972 2899.73 966.175 2890.53 966.175 2879.18C966.175 2867.83 956.972 2858.63 945.618 2858.63Z" fill="black"/>
</g>
<mask id="mask12_78_47" style="mask-type:luminance" maskUnits="userSpaceOnUse" x="270" y="3014" width="656" height="42">
<path d="M904.505 3014.49H291.223C279.87 3014.49 270.666 3023.69 270.666 3035.04C270.666 3046.39 279.87 3055.6 291.223 3055.6H904.505C915.858 3055.6 925.061 3046.39 925.061 3035.04C925.061 3023.69 915.858 3014.49 904.505 3014.49Z" fill="white"/>
</mask>
<g mask="url(#mask12_78_47)">
<path d="M904.505 3014.49H291.223C279.87 3014.49 270.666 3023.69 270.666 3035.04C270.666 3046.39 279.87 3055.6 291.223 3055.6H904.505C915.858 3055.6 925.061 3046.39 925.061 3035.04C925.061 3023.69 915.858 3014.49 904.505 3014.49Z" fill="#E0E0E0"/>
</g>
</g>
</g>
<g opacity="0.5">
<mask id="mask13_78_47" style="mask-type:luminance" maskUnits="userSpaceOnUse" x="3138" y="578" width="481" height="536">
<path d="M3590.61 578.919H3165.77C3150.63 578.919 3138.36 591.188 3138.36 606.323V1085.9C3138.36 1101.04 3150.63 1113.31 3165.77 1113.31H3590.61C3605.75 1113.31 3618.02 1101.04 3618.02 1085.9V606.323C3618.02 591.188 3605.75 578.919 3590.61 578.919Z" fill="white"/>
</mask>
<g mask="url(#mask13_78_47)">
<path d="M3590.61 578.919H3165.77C3150.63 578.919 3138.36 591.188 3138.36 606.323V1085.9C3138.36 1101.04 3150.63 1113.31 3165.77 1113.31H3590.61C3605.75 1113.31 3618.02 1101.04 3618.02 1085.9V606.323C3618.02 591.188 3605.75 578.919 3590.61 578.919Z" fill="#E0E0E0"/>
</g>
</g>
<g opacity="0.4">
<mask id="mask14_78_47" style="mask-type:luminance" maskUnits="userSpaceOnUse" x="3672" y="578" width="481" height="536">
<path d="M4125.09 578.919H3700.25C3685.11 578.919 3672.84 591.188 3672.84 606.323V1085.9C3672.84 1101.04 3685.11 1113.31 3700.25 1113.31H4125.09C4140.23 1113.31 4152.5 1101.04 4152.5 1085.9V606.323C4152.5 591.188 4140.23 578.919 4125.09 578.919Z" fill="white"/>
</mask>
<g mask="url(#mask14_78_47)">
<path d="M4125.09 578.919H3700.25C3685.11 578.919 3672.84 591.188 3672.84 606.323V1085.9C3672.84 1101.04 3685.11 1113.31 3700.25 1113.31H4125.09C4140.23 1113.31 4152.5 1101.04 4152.5 1085.9V606.323C4152.5 591.188 4140.23 578.919 4125.09 578.919Z" fill="#E0E0E0"/>
</g>
</g>
<g opacity="0.2">
<mask id="mask15_78_47" style="mask-type:luminance" maskUnits="userSpaceOnUse" x="4207" y="578" width="480" height="536">
<path d="M4659.57 578.919H4234.73C4219.59 578.919 4207.32 591.188 4207.32 606.323V1085.9C4207.32 1101.04 4219.59 1113.31 4234.73 1113.31H4659.57C4674.71 1113.31 4686.98 1101.04 4686.98 1085.9V606.323C4686.98 591.188 4674.71 578.919 4659.57 578.919Z" fill="white"/>
</mask>
<g mask="url(#mask15_78_47)">
<path d="M4659.57 578.919H4234.73C4219.59 578.919 4207.32 591.188 4207.32 606.323V1085.9C4207.32 1101.04 4219.59 1113.31 4234.73 1113.31H4659.57C4674.71 1113.31 4686.98 1101.04 4686.98 1085.9V606.323C4686.98 591.188 4674.71 578.919 4659.57 578.919Z" fill="#E0E0E0"/>
</g>
</g>
<path d="M4174.77 328.853H3201.74C3161.06 328.853 3128.08 361.827 3128.08 402.503C3128.08 443.178 3161.06 476.152 3201.74 476.152H4174.77C4215.45 476.152 4248.43 443.178 4248.43 402.503C4248.43 361.827 4215.45 328.853 4174.77 328.853Z" fill="#F5F5F5"/>
<path d="M3175.35 396.991C3175.35 385.214 3184.93 375.633 3196.71 375.633C3208.49 375.633 3218.07 385.214 3218.07 396.991C3218.07 401.859 3216.44 406.329 3213.68 409.916L3226.77 423.083C3227.33 423.645 3227.65 424.419 3227.65 425.276C3227.65 427.071 3226.39 428.434 3224.57 428.434C3223.72 428.434 3222.91 428.139 3222.3 427.526L3209.13 414.331C3205.62 416.849 3201.37 418.346 3196.71 418.346C3184.93 418.346 3175.35 408.765 3175.35 396.991ZM3179.93 396.991C3179.93 406.25 3187.45 413.769 3196.71 413.769C3205.97 413.769 3213.49 406.25 3213.49 396.991C3213.49 387.732 3205.97 380.209 3196.71 380.209C3187.45 380.209 3179.93 387.732 3179.93 396.991Z" fill="#757575"/>
<path d="M3278.08 421.987C3269.73 421.987 3264.08 417.89 3263.6 411.279L3263.57 410.906H3268.39L3268.44 411.279C3269.01 415.16 3272.75 417.544 3278.35 417.544C3283.91 417.544 3287.42 415.027 3287.42 411.039V411.012C3287.42 407.614 3285.2 405.716 3279.9 404.538L3275.62 403.599C3268.07 401.941 3264.54 398.543 3264.54 392.894V392.87C3264.56 386.526 3270.18 382.083 3278.13 382.083C3285.68 382.083 3291.19 386.444 3291.62 392.76L3291.65 393.161H3286.83L3286.78 392.788C3286.19 388.855 3282.9 386.526 3278 386.526C3272.83 386.553 3269.46 389.013 3269.46 392.733V392.76C3269.46 395.919 3271.79 397.899 3276.82 398.998L3281.1 399.934C3289.03 401.674 3292.35 404.884 3292.35 410.772V410.799C3292.35 417.651 3286.91 421.987 3278.08 421.987ZM3308.73 421.878C3300.73 421.878 3295.91 416.284 3295.91 407.535V407.507C3295.91 398.889 3300.83 392.976 3308.43 392.976C3316.03 392.976 3320.67 398.622 3320.67 406.973V408.686H3300.62C3300.73 414.413 3303.88 417.757 3308.84 417.757C3312.37 417.757 3314.86 415.993 3315.66 413.608L3315.74 413.369H3320.32L3320.27 413.636C3319.35 418.24 3314.8 421.878 3308.73 421.878ZM3308.41 397.097C3304.36 397.097 3301.21 399.855 3300.7 405.044H3315.93C3315.47 399.639 3312.47 397.097 3308.41 397.097ZM3333.51 421.878C3327.97 421.878 3324.25 418.534 3324.25 413.475V413.423C3324.25 408.686 3327.95 405.716 3334.34 405.339L3342.32 404.884V402.558C3342.32 399.156 3340.1 397.097 3336.22 397.097C3332.63 397.097 3330.38 398.81 3329.85 401.297L3329.79 401.54H3325.29L3325.32 401.246C3325.73 396.669 3329.71 392.976 3336.27 392.976C3342.86 392.976 3346.98 396.535 3346.98 402.102V421.343H3342.32V416.822H3342.21C3340.58 419.87 3337.23 421.878 3333.51 421.878ZM3329.02 413.475C3329.02 416.15 3331.21 417.839 3334.56 417.839C3338.95 417.839 3342.32 414.814 3342.32 410.772V408.497L3334.88 408.953C3331.16 409.165 3329.02 410.827 3329.02 413.423V413.475ZM3352.89 421.343V393.511H3357.55V398.221H3357.66C3358.59 395.008 3361 392.976 3364.13 392.976C3364.94 392.976 3365.63 393.11 3366.01 393.161V397.686C3365.63 397.553 3364.64 397.419 3363.52 397.419C3359.91 397.419 3357.55 399.934 3357.55 404.161V421.343H3352.89ZM3380.01 421.878C3372.11 421.878 3367.11 416.26 3367.11 407.401V407.374C3367.11 398.594 3372.22 392.976 3379.96 392.976C3386.89 392.976 3390.98 397.577 3391.57 402.342L3391.6 402.558H3387.05L3386.99 402.342C3386.3 399.56 3384.05 397.097 3379.96 397.097C3375.11 397.097 3371.87 401.112 3371.87 407.429V407.453C3371.87 413.93 3375.19 417.757 3380.01 417.757C3383.81 417.757 3386.25 415.616 3387.02 412.512L3387.08 412.296H3391.65L3391.63 412.485C3390.87 417.784 3386.3 421.878 3380.01 421.878ZM3396.17 421.343V382.727H3400.83V397.954H3400.94C3402.44 394.823 3405.46 392.976 3409.61 392.976C3415.53 392.976 3419.57 397.553 3419.57 404.294V421.343H3414.91V405.099C3414.91 400.067 3412.34 397.097 3408.01 397.097C3403.7 397.097 3400.83 400.362 3400.83 405.099V421.343H3396.17Z" fill="#757575"/>
<mask id="mask16_78_47" style="mask-type:luminance" maskUnits="userSpaceOnUse" x="2857" y="1808" width="1597" height="1724">
<path d="M4454 1808.69H2857.41V3531.75H4454V1808.69Z" fill="white"/>
</mask>
<g mask="url(#mask16_78_47)">
<path d="M4454 1808.69H2857.41V3531.75H4454V1808.69Z" fill="white"/>
<mask id="mask17_78_47" style="mask-type:alpha" maskUnits="userSpaceOnUse" x="3230" y="2089" width="1512" height="501">
<path fill-rule="evenodd" clip-rule="evenodd" d="M3374.76 2377.34C3454.25 2377.34 3518.66 2312.92 3518.66 2233.46C3518.66 2154 3454.25 2089.59 3374.76 2089.59C3295.29 2089.59 3230.86 2154 3230.86 2233.46C3230.86 2312.92 3295.29 2377.34 3374.76 2377.34ZM3590.61 2106.72C3577.35 2106.72 3566.63 2117.45 3566.63 2130.7C3566.63 2143.94 3577.35 2154.67 3590.61 2154.67H4717.81C4731.07 2154.67 4741.8 2143.94 4741.8 2130.7C4741.8 2117.45 4731.07 2106.72 4717.81 2106.72H3590.61ZM3590.61 2199.21C3577.35 2199.21 3566.63 2209.94 3566.63 2223.19C3566.63 2236.43 3577.35 2247.16 3590.61 2247.16H4409.46C4422.72 2247.16 4433.44 2236.43 4433.44 2223.19C4433.44 2209.94 4422.72 2199.21 4409.46 2199.21H3590.61ZM3566.63 2315.68C3566.63 2302.43 3577.35 2291.7 3590.61 2291.7H4114.81C4128.07 2291.7 4138.79 2302.43 4138.79 2315.68C4138.79 2328.92 4128.07 2339.65 4114.81 2339.65H3590.61C3577.35 2339.65 3566.63 2328.92 3566.63 2315.68ZM3559.77 2480.1C3559.77 2461.18 3575.12 2445.85 3594.04 2445.85H3998.32C4017.23 2445.85 4032.58 2461.18 4032.58 2480.1V2555.46C4032.58 2574.38 4017.23 2589.72 3998.32 2589.72H3594.04C3575.12 2589.72 3559.77 2574.38 3559.77 2555.46V2480.1ZM4111.38 2445.85C4092.47 2445.85 4077.12 2461.18 4077.12 2480.1V2555.46C4077.12 2574.38 4092.47 2589.72 4111.38 2589.72H4515.67C4534.58 2589.72 4549.93 2574.38 4549.93 2555.46V2480.1C4549.93 2461.18 4534.58 2445.85 4515.67 2445.85H4111.38Z" fill="#C4C4C4"/>
</mask>
<g mask="url(#mask17_78_47)">
<path d="M4830.88 1760.74H3035.57V2884.32H4830.88V1760.74Z" fill="#F5F5F5"/>
<path d="M3710.52 2045.06H3039V2630.83H3710.52V2045.06Z" fill="url(#paint0_linear_78_47)"/>
</g>
<mask id="mask18_78_47" style="mask-type:alpha" maskUnits="userSpaceOnUse" x="3230" y="2774" width="1512" height="501">
<path fill-rule="evenodd" clip-rule="evenodd" d="M3374.76 3062.45C3454.25 3062.45 3518.66 2998.03 3518.66 2918.57C3518.66 2839.11 3454.25 2774.7 3374.76 2774.7C3295.29 2774.7 3230.86 2839.11 3230.86 2918.57C3230.86 2998.03 3295.29 3062.45 3374.76 3062.45ZM3590.61 2791.83C3577.35 2791.83 3566.63 2802.56 3566.63 2815.81C3566.63 2829.05 3577.35 2839.79 3590.61 2839.79H4717.81C4731.07 2839.79 4741.8 2829.05 4741.8 2815.81C4741.8 2802.56 4731.07 2791.83 4717.81 2791.83H3590.61ZM3590.61 2884.32C3577.35 2884.32 3566.63 2895.05 3566.63 2908.3C3566.63 2921.54 3577.35 2932.28 3590.61 2932.28H4409.46C4422.72 2932.28 4433.44 2921.54 4433.44 2908.3C4433.44 2895.05 4422.72 2884.32 4409.46 2884.32H3590.61ZM3566.63 3000.79C3566.63 2987.54 3577.35 2976.81 3590.61 2976.81H4114.81C4128.07 2976.81 4138.79 2987.54 4138.79 3000.79C4138.79 3014.03 4128.07 3024.77 4114.81 3024.77H3590.61C3577.35 3024.77 3566.63 3014.03 3566.63 3000.79ZM3559.77 3165.21C3559.77 3146.29 3575.12 3130.96 3594.04 3130.96H3998.32C4017.23 3130.96 4032.58 3146.29 4032.58 3165.21V3240.58C4032.58 3259.49 4017.23 3274.83 3998.32 3274.83H3594.04C3575.12 3274.83 3559.77 3259.49 3559.77 3240.58V3165.21ZM4111.38 3130.96C4092.47 3130.96 4077.12 3146.29 4077.12 3165.21V3240.58C4077.12 3259.49 4092.47 3274.83 4111.38 3274.83H4515.67C4534.58 3274.83 4549.93 3259.49 4549.93 3240.58V3165.21C4549.93 3146.29 4534.58 3130.96 4515.67 3130.96H4111.38Z" fill="#C4C4C4"/>
</mask>
<g mask="url(#mask18_78_47)">
<path d="M4830.88 2445.85H3035.57V3569.43H4830.88V2445.85Z" fill="#F8F8F8"/>
<path d="M3710.52 2730.17H3039V3315.94H3710.52V2730.17Z" fill="url(#paint1_linear_78_47)"/>
</g>
</g>
<path d="M421.417 58.2344H229.552V92.4899H421.417V58.2344Z" fill="#EEF0F5" fill-opacity="0.8"/>
<path d="M935.34 143.873H229.552V178.129H935.34V143.873Z" fill="#EEF0F5" fill-opacity="0.8"/>
<path d="M935.34 195.257H229.552V229.512H935.34V195.257Z" fill="#EEF0F5" fill-opacity="0.8"/>
<path d="M935.34 246.64H229.552V280.895H935.34V246.64Z" fill="#EEF0F5" fill-opacity="0.8"/>
<path d="M935.34 332.279H229.552V366.534H935.34V332.279Z" fill="#EEF0F5" fill-opacity="0.8"/>
<path d="M935.34 383.662H229.552V417.918H935.34V383.662Z" fill="#EEF0F5" fill-opacity="0.8"/>
<path d="M579.02 435.045H229.552V469.301H579.02V435.045Z" fill="#EEF0F5" fill-opacity="0.8"/>
<path d="M390.581 524.11H229.552V558.365H390.581V524.11Z" fill="#EEF0F5" fill-opacity="0.8"/>
<path d="M626.986 524.11H465.957V558.365H626.986V524.11Z" fill="#EEF0F5" fill-opacity="0.8"/>
<path d="M863.391 524.11H702.361V558.365H863.391V524.11Z" fill="#EEF0F5" fill-opacity="0.8"/>
<path d="M421.417 726.218H229.552V760.473H421.417V726.218Z" fill="#EEF0F5" fill-opacity="0.8"/>
<path d="M935.34 811.856H229.552V846.112H935.34V811.856Z" fill="#EEF0F5" fill-opacity="0.8"/>
<path d="M935.34 863.24H229.552V897.496H935.34V863.24Z" fill="#EEF0F5" fill-opacity="0.8"/>
<path d="M935.34 914.623H229.552V948.879H935.34V914.623Z" fill="#EEF0F5" fill-opacity="0.8"/>
<path d="M935.34 1000.26H229.552V1034.52H935.34V1000.26Z" fill="#EEF0F5" fill-opacity="0.8"/>
<path d="M935.34 1051.65H229.552V1085.9H935.34V1051.65Z" fill="#EEF0F5" fill-opacity="0.8"/>
<path d="M579.02 1103.03H229.552V1137.28H579.02V1103.03Z" fill="#EEF0F5" fill-opacity="0.8"/>
<path d="M390.581 1192.09H229.552V1226.35H390.581V1192.09Z" fill="#EEF0F5" fill-opacity="0.8"/>
<path d="M626.986 1192.09H465.957V1226.35H626.986V1192.09Z" fill="#EEF0F5" fill-opacity="0.8"/>
<path d="M863.391 1192.09H702.361V1226.35H863.391V1192.09Z" fill="#EEF0F5" fill-opacity="0.8"/>
<mask id="mask19_78_47" style="mask-type:luminance" maskUnits="userSpaceOnUse" x="1658" y="2606" width="1138" height="762">
<path d="M2795.74 2606.85H1658.26V3367.32H2795.74V2606.85Z" fill="white"/>
</mask>
<g mask="url(#mask19_78_47)">
<g opacity="0.8">
<g filter="url(#filter0_d_78_47)">
<path d="M2237.28 2671.93H2065.97C2047.05 2671.93 2031.71 2687.27 2031.71 2706.19V2911.72C2031.71 2930.64 2047.05 2945.98 2065.97 2945.98H2237.28C2256.2 2945.98 2271.54 2930.64 2271.54 2911.72V2706.19C2271.54 2687.27 2256.2 2671.93 2237.28 2671.93Z" fill="#F9FAFB"/>
<path d="M2237.28 2671.93H2065.97C2047.05 2671.93 2031.71 2687.27 2031.71 2706.19V2911.72C2031.71 2930.64 2047.05 2945.98 2065.97 2945.98H2237.28C2256.2 2945.98 2271.54 2930.64 2271.54 2911.72V2706.19C2271.54 2687.27 2256.2 2671.93 2237.28 2671.93Z" stroke="#E3E5EA"/>
</g>
<g filter="url(#filter1_d_78_47)">
<path d="M2504.52 2671.93H2333.21C2314.29 2671.93 2298.95 2687.27 2298.95 2706.19V2911.72C2298.95 2930.64 2314.29 2945.98 2333.21 2945.98H2504.52C2523.44 2945.98 2538.78 2930.64 2538.78 2911.72V2706.19C2538.78 2687.27 2523.44 2671.93 2504.52 2671.93Z" fill="#F9FAFB"/>
<path d="M2504.52 2671.93H2333.21C2314.29 2671.93 2298.95 2687.27 2298.95 2706.19V2911.72C2298.95 2930.64 2314.29 2945.98 2333.21 2945.98H2504.52C2523.44 2945.98 2538.78 2930.64 2538.78 2911.72V2706.19C2538.78 2687.27 2523.44 2671.93 2504.52 2671.93Z" stroke="#E3E5EA"/>
</g>
<g filter="url(#filter2_d_78_47)">
<path d="M1764.47 2671.93C1745.55 2671.93 1730.21 2687.27 1730.21 2706.19V3254.28C1730.21 3273.2 1745.55 3288.53 1764.47 3288.53H2689.53C2708.45 3288.53 2723.79 3273.2 2723.79 3254.28V2791.83C2723.79 2772.91 2708.45 2757.57 2689.53 2757.57H2011.15C2009.34 2757.57 2007.59 2756.85 2006.31 2755.56C2005.02 2754.28 2004.3 2752.54 2004.3 2750.72V2706.19C2004.3 2687.27 1988.96 2671.93 1970.04 2671.93H1764.47Z" fill="white"/>
<path d="M1764.47 2671.93C1745.55 2671.93 1730.21 2687.27 1730.21 2706.19V3254.28C1730.21 3273.2 1745.55 3288.53 1764.47 3288.53H2689.53C2708.45 3288.53 2723.79 3273.2 2723.79 3254.28V2791.83C2723.79 2772.91 2708.45 2757.57 2689.53 2757.57H2011.15C2009.34 2757.57 2007.59 2756.85 2006.31 2755.56C2005.02 2754.28 2004.3 2752.54 2004.3 2750.72V2706.19C2004.3 2687.27 1988.96 2671.93 1970.04 2671.93H1764.47Z" stroke="#E3E5EA"/>
</g>
</g>
</g>
<mask id="mask20_78_47" style="mask-type:luminance" maskUnits="userSpaceOnUse" x="3717" y="1216" width="1138" height="734">
<path d="M4854.86 1216.07H3717.38V1949.14H4854.86V1216.07Z" fill="white"/>
</mask>
<g mask="url(#mask20_78_47)">
<g opacity="0.6">
<g filter="url(#filter3_d_78_47)">
<path d="M4750.29 1279.51H3825.23C3806.32 1279.51 3790.97 1294.84 3790.97 1313.76V1382.27C3790.97 1401.19 3806.32 1416.53 3825.23 1416.53H4750.29C4769.21 1416.53 4784.56 1401.19 4784.56 1382.27V1313.76C4784.56 1294.84 4769.21 1279.51 4750.29 1279.51Z" fill="white"/>
<path d="M4750.29 1279.51H3825.23C3806.32 1279.51 3790.97 1294.84 3790.97 1313.76V1382.27C3790.97 1401.19 3806.32 1416.53 3825.23 1416.53H4750.29C4769.21 1416.53 4784.56 1401.19 4784.56 1382.27V1313.76C4784.56 1294.84 4769.21 1279.51 4750.29 1279.51Z" stroke="#E3E5EA"/>
</g>
<mask id="mask21_78_47" style="mask-type:luminance" maskUnits="userSpaceOnUse" x="3832" y="1306" width="83" height="84">
<g opacity="0.6">
<path d="M3832.08 1306.91H3914.31V1389.12H3832.08V1306.91Z" fill="white"/>
</g>
</mask>
<g mask="url(#mask21_78_47)">
<path fill-rule="evenodd" clip-rule="evenodd" d="M3862.06 1310.34C3862.06 1309.65 3861.79 1309 3861.31 1308.52C3860.83 1308.04 3860.18 1307.77 3859.49 1307.77C3858.81 1307.77 3858.16 1308.04 3857.68 1308.52C3857.2 1309 3856.92 1309.65 3856.92 1310.34V1314.65C3854.46 1314.71 3852.57 1314.9 3850.89 1315.46C3848.5 1316.26 3846.34 1317.6 3844.56 1319.38C3842.77 1321.16 3841.44 1323.33 3840.65 1325.72C3839.79 1328.24 3839.79 1331.26 3839.79 1335.99V1351.64C3839.79 1357.93 3839.79 1362.92 3840.31 1366.82C3840.86 1370.84 3841.99 1374.09 3844.56 1376.65C3847.13 1379.21 3850.38 1380.35 3854.39 1380.89C3858.29 1381.42 3863.26 1381.42 3869.57 1381.42H3876.83C3883.1 1381.42 3888.1 1381.42 3892.01 1380.89C3896.02 1380.35 3899.27 1379.21 3901.84 1376.65C3904.41 1374.09 3905.54 1370.84 3906.09 1366.82C3906.6 1362.92 3906.6 1357.93 3906.6 1351.64V1344.4C3906.6 1338.1 3906.6 1333.12 3906.09 1329.21C3905.54 1325.2 3904.41 1321.95 3901.84 1319.38C3899.27 1316.82 3896.02 1315.68 3892.01 1315.14C3891.22 1315.03 3890.36 1314.95 3889.47 1314.88V1310.34C3889.47 1309.65 3889.2 1309 3888.72 1308.52C3888.24 1308.04 3887.59 1307.77 3886.9 1307.77C3886.22 1307.77 3885.57 1308.04 3885.09 1308.52C3884.61 1309 3884.33 1309.65 3884.33 1310.34V1314.66C3882.07 1314.62 3879.57 1314.62 3876.83 1314.62H3862.06V1310.34ZM3884.33 1320.61V1319.8C3882.11 1319.76 3879.54 1319.76 3876.62 1319.76H3862.06V1320.61C3862.06 1321.29 3861.79 1321.95 3861.31 1322.43C3860.83 1322.91 3860.18 1323.18 3859.49 1323.18C3858.81 1323.18 3858.16 1322.91 3857.68 1322.43C3857.2 1321.95 3856.92 1321.29 3856.92 1320.61V1319.79C3854.77 1319.85 3853.57 1319.99 3852.54 1320.33C3850.89 1320.88 3849.42 1321.8 3848.19 1323.02C3846.95 1324.23 3846.06 1325.72 3845.52 1327.35C3844.97 1328.97 3844.93 1331.07 3844.93 1336.53V1351.44C3844.93 1357.97 3844.93 1362.61 3845.41 1366.14C3845.86 1369.58 3846.75 1371.57 3848.19 1373.02C3849.63 1374.47 3851.61 1375.34 3855.07 1375.8C3858.6 1376.27 3863.23 1376.28 3869.77 1376.28H3876.62C3883.17 1376.28 3887.79 1376.27 3891.32 1375.8C3894.75 1375.34 3896.74 1374.46 3898.21 1373.02C3899.65 1371.57 3900.5 1369.58 3900.98 1366.13C3901.46 1362.61 3901.46 1357.97 3901.46 1351.44V1344.59C3901.46 1338.06 3901.46 1333.42 3900.98 1329.9C3900.5 1326.45 3899.65 1324.47 3898.21 1323.01C3896.74 1321.57 3894.75 1320.7 3891.32 1320.23C3890.74 1320.15 3890.12 1320.09 3889.47 1320.03V1320.61C3889.47 1321.29 3889.2 1321.95 3888.72 1322.43C3888.24 1322.91 3887.59 1323.18 3886.9 1323.18C3886.22 1323.18 3885.57 1322.91 3885.09 1322.43C3884.61 1321.95 3884.33 1321.29 3884.33 1320.61ZM3856.07 1331.75C3855.38 1331.75 3854.73 1332.02 3854.25 1332.5C3853.77 1332.98 3853.5 1333.63 3853.5 1334.32C3853.5 1335 3853.77 1335.65 3854.25 1336.13C3854.73 1336.61 3855.38 1336.88 3856.07 1336.88H3890.33C3891.01 1336.88 3891.67 1336.61 3892.15 1336.13C3892.62 1335.65 3892.9 1335 3892.9 1334.32C3892.9 1333.63 3892.62 1332.98 3892.15 1332.5C3891.67 1332.02 3891.01 1331.75 3890.33 1331.75H3856.07ZM3862.92 1348.02C3862.92 1348.93 3862.54 1349.8 3861.93 1350.44C3861.28 1351.08 3860.38 1351.44 3859.49 1351.44C3858.57 1351.44 3857.71 1351.08 3857.06 1350.44C3856.41 1349.8 3856.07 1348.93 3856.07 1348.02C3856.07 1347.11 3856.41 1346.24 3857.06 1345.6C3857.71 1344.95 3858.57 1344.59 3859.49 1344.59C3860.38 1344.59 3861.28 1344.95 3861.93 1345.6C3862.54 1346.24 3862.92 1347.11 3862.92 1348.02ZM3859.49 1365.15C3860.38 1365.15 3861.28 1364.79 3861.93 1364.14C3862.54 1363.5 3862.92 1362.63 3862.92 1361.72C3862.92 1360.81 3862.54 1359.94 3861.93 1359.3C3861.28 1358.65 3860.38 1358.29 3859.49 1358.29C3858.57 1358.29 3857.71 1358.65 3857.06 1359.3C3856.41 1359.94 3856.07 1360.81 3856.07 1361.72C3856.07 1362.63 3856.41 1363.5 3857.06 1364.14C3857.71 1364.79 3858.57 1365.15 3859.49 1365.15ZM3876.62 1361.72C3876.62 1362.63 3876.25 1363.5 3875.63 1364.14C3874.98 1364.79 3874.09 1365.15 3873.2 1365.15C3872.27 1365.15 3871.42 1364.79 3870.77 1364.14C3870.11 1363.5 3869.77 1362.63 3869.77 1361.72C3869.77 1360.81 3870.11 1359.94 3870.77 1359.3C3871.42 1358.65 3872.27 1358.29 3873.2 1358.29C3874.09 1358.29 3874.98 1358.65 3875.63 1359.3C3876.25 1359.94 3876.62 1360.81 3876.62 1361.72ZM3886.9 1365.15C3887.79 1365.15 3888.68 1364.79 3889.34 1364.14C3889.95 1363.5 3890.33 1362.63 3890.33 1361.72C3890.33 1360.81 3889.95 1359.94 3889.34 1359.3C3888.68 1358.65 3887.79 1358.29 3886.9 1358.29C3885.98 1358.29 3885.12 1358.65 3884.47 1359.3C3883.82 1359.94 3883.48 1360.81 3883.48 1361.72C3883.48 1362.63 3883.82 1363.5 3884.47 1364.14C3885.12 1364.79 3885.98 1365.15 3886.9 1365.15ZM3876.62 1348.02C3876.62 1348.93 3876.25 1349.8 3875.63 1350.44C3874.98 1351.08 3874.09 1351.44 3873.2 1351.44C3872.27 1351.44 3871.42 1351.08 3870.77 1350.44C3870.11 1349.8 3869.77 1348.93 3869.77 1348.02C3869.77 1347.11 3870.11 1346.24 3870.77 1345.6C3871.42 1344.95 3872.27 1344.59 3873.2 1344.59C3874.09 1344.59 3874.98 1344.95 3875.63 1345.6C3876.25 1346.24 3876.62 1347.11 3876.62 1348.02ZM3886.9 1351.44C3887.79 1351.44 3888.68 1351.08 3889.34 1350.44C3889.95 1349.8 3890.33 1348.93 3890.33 1348.02C3890.33 1347.11 3889.95 1346.24 3889.34 1345.6C3888.68 1344.95 3887.79 1344.59 3886.9 1344.59C3885.98 1344.59 3885.12 1344.95 3884.47 1345.6C3883.82 1346.24 3883.48 1347.11 3883.48 1348.02C3883.48 1348.93 3883.82 1349.8 3884.47 1350.44C3885.12 1351.08 3885.98 1351.44 3886.9 1351.44Z" fill="#9DA3AE"/>
</g>
<path opacity="0.5" d="M4325.45 1313.76H3982.84C3975.26 1313.76 3969.13 1319.9 3969.13 1327.46V1368.57C3969.13 1376.14 3975.26 1382.27 3982.84 1382.27H4325.45C4333.02 1382.27 4339.16 1376.14 4339.16 1368.57V1327.46C4339.16 1319.9 4333.02 1313.76 4325.45 1313.76Z" fill="#D2D5DA"/>
<g filter="url(#filter4_d_78_47)">
<path d="M4750.29 1443.93H3825.23C3806.32 1443.93 3790.97 1459.27 3790.97 1478.19V1834.45C3790.97 1853.37 3806.32 1868.7 3825.23 1868.7H4750.29C4769.21 1868.7 4784.56 1853.37 4784.56 1834.45V1478.19C4784.56 1459.27 4769.21 1443.93 4750.29 1443.93Z" fill="white"/>
<path d="M4750.29 1443.93H3825.23C3806.32 1443.93 3790.97 1459.27 3790.97 1478.19V1834.45C3790.97 1853.37 3806.32 1868.7 3825.23 1868.7H4750.29C4769.21 1868.7 4784.56 1853.37 4784.56 1834.45V1478.19C4784.56 1459.27 4769.21 1443.93 4750.29 1443.93Z" stroke="#E3E5EA"/>
</g>
<path opacity="0.1" d="M3924.59 1577.53H3849.22C3841.64 1577.53 3835.51 1583.67 3835.51 1591.23V1666.59C3835.51 1674.16 3841.64 1680.3 3849.22 1680.3H3924.59C3932.16 1680.3 3938.3 1674.16 3938.3 1666.59V1591.23C3938.3 1583.67 3932.16 1577.53 3924.59 1577.53Z" fill="#D2D5DA"/>
<path opacity="0.1" d="M3924.59 1711.13H3849.22C3841.64 1711.13 3835.51 1717.26 3835.51 1724.83V1800.19C3835.51 1807.76 3841.64 1813.89 3849.22 1813.89H3924.59C3932.16 1813.89 3938.3 1807.76 3938.3 1800.19V1724.83C3938.3 1717.26 3932.16 1711.13 3924.59 1711.13Z" fill="#D2D5DA"/>
<path opacity="0.1" d="M4058.21 1577.53H3982.84C3975.26 1577.53 3969.13 1583.67 3969.13 1591.23V1666.59C3969.13 1674.16 3975.26 1680.3 3982.84 1680.3H4058.21C4065.78 1680.3 4071.92 1674.16 4071.92 1666.59V1591.23C4071.92 1583.67 4065.78 1577.53 4058.21 1577.53Z" fill="#D2D5DA"/>
<path opacity="0.1" d="M4058.21 1711.13H3982.84C3975.26 1711.13 3969.13 1717.26 3969.13 1724.83V1800.19C3969.13 1807.76 3975.26 1813.89 3982.84 1813.89H4058.21C4065.78 1813.89 4071.92 1807.76 4071.92 1800.19V1724.83C4071.92 1717.26 4065.78 1711.13 4058.21 1711.13Z" fill="#D2D5DA"/>
<path opacity="0.1" d="M4191.83 1577.53H4116.46C4108.88 1577.53 4102.75 1583.67 4102.75 1591.23V1666.59C4102.75 1674.16 4108.88 1680.3 4116.46 1680.3H4191.83C4199.4 1680.3 4205.54 1674.16 4205.54 1666.59V1591.23C4205.54 1583.67 4199.4 1577.53 4191.83 1577.53Z" fill="#D2D5DA"/>
<path opacity="0.1" d="M4191.83 1711.13H4116.46C4108.88 1711.13 4102.75 1717.26 4102.75 1724.83V1800.19C4102.75 1807.76 4108.88 1813.89 4116.46 1813.89H4191.83C4199.4 1813.89 4205.54 1807.76 4205.54 1800.19V1724.83C4205.54 1717.26 4199.4 1711.13 4191.83 1711.13Z" fill="#D2D5DA"/>
<path opacity="0.1" d="M4325.45 1577.53H4250.08C4242.5 1577.53 4236.37 1583.67 4236.37 1591.23V1666.59C4236.37 1674.16 4242.5 1680.3 4250.08 1680.3H4325.45C4333.02 1680.3 4339.16 1674.16 4339.16 1666.59V1591.23C4339.16 1583.67 4333.02 1577.53 4325.45 1577.53Z" fill="#D2D5DA"/>
<path opacity="0.1" d="M4325.45 1711.13H4250.08C4242.5 1711.13 4236.37 1717.26 4236.37 1724.83V1800.19C4236.37 1807.76 4242.5 1813.89 4250.08 1813.89H4325.45C4333.02 1813.89 4339.16 1807.76 4339.16 1800.19V1724.83C4339.16 1717.26 4333.02 1711.13 4325.45 1711.13Z" fill="#D2D5DA"/>
<path d="M4452.22 1577.53H4390.55C4379.21 1577.53 4369.99 1586.73 4369.99 1598.08V1659.74C4369.99 1671.1 4379.21 1680.3 4390.55 1680.3H4452.22C4463.56 1680.3 4472.78 1671.1 4472.78 1659.74V1598.08C4472.78 1586.73 4463.56 1577.53 4452.22 1577.53Z" fill="white" stroke="#D2D5DA"/>
<path opacity="0.1" d="M4459.07 1711.13H4383.7C4376.12 1711.13 4369.99 1717.26 4369.99 1724.83V1800.19C4369.99 1807.76 4376.12 1813.89 4383.7 1813.89H4459.07C4466.64 1813.89 4472.78 1807.76 4472.78 1800.19V1724.83C4472.78 1717.26 4466.64 1711.13 4459.07 1711.13Z" fill="#D2D5DA"/>
<path d="M4158.63 1612.72V1642.62H4154.11V1617.24H4153.94L4146.78 1621.91V1617.6L4154.25 1612.72H4158.63Z" fill="#797F8A"/>
<path d="M4143.52 1505.73V1502.16H4164.73V1505.73H4156.2V1529.57H4152.05V1505.73H4143.52Z" fill="#9CA0A9"/>
<path d="M4154.14 1776.62C4152.05 1776.62 4150.2 1776.26 4148.59 1775.54C4146.98 1774.82 4145.75 1773.83 4144.82 1772.56C4143.93 1771.3 4143.45 1769.79 4143.49 1768.24C4143.45 1767.06 4143.73 1765.88 4144.24 1764.81C4144.76 1763.74 4145.51 1762.81 4146.43 1762.08C4147.32 1761.37 4148.39 1760.9 4149.52 1760.71V1760.53C4148.04 1760.2 4146.78 1759.35 4145.92 1758.14C4145.03 1756.9 4144.55 1755.41 4144.58 1753.88C4144.55 1752.42 4145 1750.99 4145.82 1749.79C4146.67 1748.55 4147.84 1747.57 4149.21 1746.94C4150.65 1746.25 4152.29 1745.91 4154.14 1745.91C4155.96 1745.91 4157.57 1746.26 4159.01 1746.96C4160.45 1747.65 4161.58 1748.6 4162.4 1749.8C4163.22 1751 4163.67 1752.36 4163.67 1753.88C4163.67 1755.41 4163.19 1756.9 4162.3 1758.14C4161.44 1759.34 4160.17 1760.19 4158.77 1760.53V1760.71C4159.86 1760.9 4160.89 1761.36 4161.78 1762.08C4162.67 1762.79 4163.39 1763.68 4163.94 1764.75C4164.49 1765.81 4164.76 1766.98 4164.76 1768.24C4164.8 1769.79 4164.32 1771.3 4163.39 1772.56C4162.5 1773.83 4161.24 1774.82 4159.62 1775.54C4158.05 1776.26 4156.2 1776.62 4154.14 1776.62ZM4154.14 1772.93C4155.38 1772.93 4156.44 1772.72 4157.33 1772.31C4158.25 1771.9 4158.94 1771.32 4159.45 1770.58C4159.93 1769.83 4160.21 1768.95 4160.21 1767.95C4160.21 1766.97 4159.93 1766.01 4159.39 1765.19C4158.84 1764.38 4158.12 1763.73 4157.23 1763.31C4156.27 1762.84 4155.21 1762.6 4154.14 1762.62C4152.94 1762.62 4151.92 1762.85 4150.99 1763.31C4150.1 1763.73 4149.38 1764.38 4148.83 1765.19C4148.28 1766.01 4148.04 1766.97 4148.04 1767.95C4148.04 1768.95 4148.28 1769.83 4148.76 1770.58C4149.28 1771.32 4149.96 1771.9 4150.89 1772.31C4151.81 1772.72 4152.88 1772.93 4154.14 1772.93ZM4154.14 1759.02C4155.14 1759.02 4155.99 1758.81 4156.78 1758.42C4157.53 1758.02 4158.15 1757.46 4158.6 1756.75C4159.04 1756.04 4159.25 1755.21 4159.28 1754.25C4159.28 1753.39 4159.04 1752.54 4158.6 1751.81C4158.15 1751.1 4157.53 1750.54 4156.82 1750.18C4155.96 1749.78 4155.07 1749.58 4154.14 1749.6C4153.18 1749.58 4152.26 1749.78 4151.4 1750.18C4150.68 1750.54 4150.03 1751.1 4149.62 1751.81C4149.18 1752.55 4148.97 1753.39 4149 1754.25C4148.97 1755.21 4149.21 1756.04 4149.62 1756.75C4150.07 1757.46 4150.68 1758.02 4151.44 1758.42C4152.22 1758.81 4153.12 1759.02 4154.14 1759.02Z" fill="#797F8A"/>
<path opacity="0.5" d="M3999.49 1642.62V1639.34L4009.59 1628.86C4010.69 1627.72 4011.58 1626.73 4012.27 1625.87C4012.99 1625 4013.53 1624.18 4013.88 1623.4C4014.22 1622.62 4014.39 1621.8 4014.39 1620.92C4014.39 1619.93 4014.15 1619.07 4013.7 1618.35C4013.23 1617.62 4012.57 1617.04 4011.79 1616.67C4010.93 1616.27 4010 1616.06 4009.05 1616.07C4007.98 1616.07 4007.06 1616.29 4006.24 1616.73C4005.48 1617.15 4004.83 1617.8 4004.42 1618.59C4003.97 1619.45 4003.73 1620.42 4003.77 1621.39H3999.45C3999.45 1619.57 3999.9 1617.98 4000.72 1616.62C4001.54 1615.26 4002.74 1614.16 4004.18 1613.45C4005.72 1612.67 4007.4 1612.28 4009.15 1612.31C4011.03 1612.31 4012.68 1612.68 4014.12 1613.43C4015.56 1614.17 4016.69 1615.18 4017.47 1616.47C4018.3 1617.75 4018.71 1619.18 4018.71 1620.79C4018.71 1621.9 4018.47 1622.98 4018.06 1624.05C4017.65 1625.11 4016.93 1626.29 4015.93 1627.59C4014.9 1628.89 4013.47 1630.46 4011.65 1632.31L4005.72 1638.53V1638.74H4019.19V1642.62H3999.49ZM4034.84 1643.02C4032.75 1643.02 4030.9 1642.66 4029.29 1641.94C4027.68 1641.22 4026.45 1640.23 4025.56 1638.96C4024.63 1637.71 4024.15 1636.19 4024.19 1634.64C4024.19 1633.46 4024.43 1632.28 4024.94 1631.22C4025.46 1630.15 4026.21 1629.21 4027.14 1628.49C4028.03 1627.77 4029.09 1627.3 4030.22 1627.11V1626.94C4028.78 1626.6 4027.51 1625.75 4026.66 1624.54C4025.73 1623.31 4025.29 1621.81 4025.32 1620.28C4025.29 1618.82 4025.7 1617.4 4026.52 1616.19C4027.34 1614.98 4028.47 1614.04 4029.91 1613.35C4031.35 1612.66 4032.99 1612.31 4034.84 1612.31C4036.66 1612.31 4038.3 1612.66 4039.71 1613.36C4041.15 1614.05 4042.28 1615 4043.14 1616.21C4043.96 1617.4 4044.37 1618.76 4044.37 1620.28C4044.4 1621.81 4043.92 1623.31 4043 1624.54C4042.14 1625.74 4040.91 1626.59 4039.47 1626.94V1627.11C4040.6 1627.31 4041.59 1627.76 4042.48 1628.49C4043.41 1629.19 4044.13 1630.08 4044.64 1631.15C4045.19 1632.22 4045.47 1633.38 4045.5 1634.64C4045.5 1636.19 4045.02 1637.71 4044.13 1638.96C4043.2 1640.23 4041.97 1641.22 4040.36 1641.94C4038.75 1642.66 4036.93 1643.02 4034.84 1643.02ZM4034.84 1639.33C4036.08 1639.33 4037.14 1639.12 4038.06 1638.72C4038.92 1638.35 4039.64 1637.74 4040.15 1636.98C4040.67 1636.23 4040.91 1635.35 4040.91 1634.35C4040.94 1633.37 4040.63 1632.41 4040.09 1631.59C4039.57 1630.78 4038.82 1630.14 4037.96 1629.71C4037 1629.24 4035.91 1629 4034.84 1629.02C4033.68 1629.02 4032.62 1629.25 4031.69 1629.71C4030.84 1630.13 4030.08 1630.78 4029.53 1631.59C4029.02 1632.41 4028.75 1633.38 4028.78 1634.35C4028.75 1635.35 4028.99 1636.23 4029.5 1636.98C4029.98 1637.72 4030.7 1638.3 4031.59 1638.72C4032.51 1639.12 4033.61 1639.33 4034.84 1639.33ZM4034.84 1625.42C4035.84 1625.42 4036.73 1625.22 4037.48 1624.82C4038.27 1624.42 4038.85 1623.87 4039.3 1623.15C4039.74 1622.45 4039.98 1621.61 4039.98 1620.66C4039.98 1619.79 4039.78 1618.94 4039.3 1618.21C4038.89 1617.51 4038.27 1616.94 4037.52 1616.59C4036.69 1616.18 4035.77 1615.98 4034.84 1616C4033.82 1616 4032.89 1616.2 4032.14 1616.59C4031.35 1616.96 4030.77 1617.51 4030.32 1618.21C4029.91 1618.95 4029.67 1619.8 4029.71 1620.66C4029.71 1621.61 4029.91 1622.45 4030.36 1623.15C4030.8 1623.87 4031.38 1624.42 4032.17 1624.82C4032.93 1625.22 4033.85 1625.42 4034.84 1625.42Z" fill="#797F8A"/>
<path d="M4006.61 1502.17H4011.65L4020.35 1523.47H4020.69L4029.4 1502.17H4034.43V1529.57H4030.49V1509.74H4030.25L4022.17 1529.53H4018.88L4010.79 1509.73H4010.55V1529.57H4006.61V1502.17Z" fill="#9CA0A9"/>
<path d="M4014.22 1776.21L4027.27 1750.4V1750.18H4012.16V1746.31H4031.93V1750.32L4018.91 1776.21H4014.22Z" fill="#797F8A"/>
<path opacity="0.5" d="M3866.96 1642.62V1639.34L3877.07 1628.86C3878.17 1627.72 3879.06 1626.73 3879.74 1625.87C3880.39 1625.12 3880.91 1624.29 3881.35 1623.4C3881.7 1622.62 3881.87 1621.78 3881.87 1620.92C3881.87 1619.93 3881.63 1619.07 3881.15 1618.35C3880.7 1617.62 3880.05 1617.04 3879.26 1616.67C3878.41 1616.27 3877.48 1616.06 3876.52 1616.07C3875.46 1616.07 3874.5 1616.29 3873.71 1616.73C3872.92 1617.15 3872.31 1617.8 3871.86 1618.59C3871.42 1619.45 3871.21 1620.42 3871.25 1621.39H3866.93C3866.93 1619.57 3867.34 1617.98 3868.2 1616.62C3869.02 1615.26 3870.22 1614.16 3871.62 1613.45C3873.16 1612.67 3874.88 1612.28 3876.59 1612.31C3878.47 1612.31 3880.15 1612.68 3881.56 1613.43C3883 1614.17 3884.13 1615.18 3884.95 1616.47C3885.74 1617.75 3886.15 1619.18 3886.15 1620.79C3886.15 1621.9 3885.94 1622.98 3885.53 1624.05C3885.12 1625.11 3884.4 1626.29 3883.37 1627.59C3882.35 1628.89 3880.94 1630.46 3879.13 1632.31L3873.16 1638.53V1638.74H3886.63V1642.62H3866.96ZM3893.21 1642.62L3906.26 1616.8V1616.59H3891.15V1612.72H3910.92V1616.72L3897.94 1642.62H3893.21Z" fill="#797F8A"/>
<path d="M3892.73 1509.37C3892.69 1508.78 3892.49 1508.2 3892.18 1507.69C3891.87 1507.18 3891.46 1506.75 3890.98 1506.42C3889.92 1505.72 3888.62 1505.36 3887.04 1505.36C3885.94 1505.36 3884.95 1505.54 3884.13 1505.9C3883.31 1506.25 3882.69 1506.73 3882.21 1507.34C3881.8 1507.94 3881.56 1508.67 3881.56 1509.42C3881.56 1510.07 3881.7 1510.63 3882 1511.1C3882.31 1511.58 3882.72 1511.98 3883.24 1512.3C3883.75 1512.61 3884.26 1512.87 3884.85 1513.08C3885.43 1513.29 3886.01 1513.46 3886.53 1513.59L3889.2 1514.29C3890.09 1514.5 3890.98 1514.79 3891.91 1515.16C3892.83 1515.52 3893.69 1516.01 3894.44 1516.6C3895.23 1517.2 3895.88 1517.94 3896.36 1518.83C3896.84 1519.71 3897.08 1520.76 3897.08 1522C3897.08 1523.55 3896.7 1524.93 3895.88 1526.13C3895.09 1527.34 3893.93 1528.29 3892.42 1528.98C3890.91 1529.68 3889.1 1530.02 3886.94 1530.02C3884.88 1530.02 3883.13 1529.7 3881.63 1529.05C3880.12 1528.4 3878.95 1527.47 3878.1 1526.28C3877.24 1525.07 3876.8 1523.65 3876.69 1522H3880.84C3880.94 1522.99 3881.25 1523.81 3881.8 1524.47C3882.38 1525.12 3883.1 1525.61 3883.99 1525.93C3884.88 1526.24 3885.88 1526.4 3886.94 1526.4C3888.1 1526.4 3889.13 1526.22 3890.06 1525.85C3890.95 1525.48 3891.7 1524.96 3892.21 1524.3C3892.73 1523.63 3893 1522.85 3893 1521.96C3893.04 1521.23 3892.8 1520.51 3892.32 1519.96C3891.8 1519.4 3891.15 1518.96 3890.43 1518.68C3889.58 1518.31 3888.72 1518.01 3887.79 1517.78L3884.57 1516.9C3882.38 1516.3 3880.63 1515.42 3879.33 1514.26C3878.06 1513.1 3877.45 1511.57 3877.45 1509.66C3877.45 1508.08 3877.86 1506.7 3878.71 1505.52C3879.57 1504.35 3880.74 1503.44 3882.21 1502.78C3883.65 1502.12 3885.33 1501.79 3887.14 1501.79C3888.99 1501.79 3890.64 1502.12 3892.08 1502.77C3893.48 1503.42 3894.61 1504.32 3895.43 1505.46C3896.26 1506.59 3896.67 1507.9 3896.7 1509.36L3892.73 1509.37Z" fill="#9CA0A9"/>
<path d="M3877.1 1766.67C3877.1 1765.69 3877.24 1764.7 3877.52 1763.68C3877.79 1762.67 3878.24 1761.57 3878.82 1760.39C3879.43 1759.2 3880.26 1757.85 3881.25 1756.34L3888.03 1746.31H3892.8L3885.16 1757.53C3885.5 1757.42 3885.84 1757.33 3886.25 1757.26C3886.63 1757.19 3887.01 1757.15 3887.42 1757.15C3889.23 1757.15 3890.84 1757.56 3892.25 1758.4C3893.69 1759.24 3894.82 1760.38 3895.61 1761.83C3896.46 1763.28 3896.87 1764.95 3896.87 1766.83C3896.87 1768.74 3896.43 1770.43 3895.57 1771.9C3894.75 1773.36 3893.55 1774.55 3892.08 1775.36C3890.6 1776.2 3888.89 1776.62 3887.01 1776.62C3885.22 1776.64 3883.48 1776.22 3881.94 1775.38C3880.46 1774.56 3879.23 1773.36 3878.37 1771.89C3877.52 1770.39 3877.07 1768.65 3877.1 1766.67ZM3881.46 1766.84C3881.46 1768.02 3881.7 1769.06 3882.18 1769.96C3882.62 1770.87 3883.27 1771.58 3884.13 1772.09C3884.95 1772.61 3885.91 1772.87 3887.01 1772.87C3888.1 1772.87 3889.03 1772.62 3889.88 1772.11C3890.71 1771.59 3891.36 1770.89 3891.84 1769.99C3892.32 1769.09 3892.56 1768.06 3892.56 1766.9C3892.56 1765.72 3892.32 1764.69 3891.84 1763.79C3891.39 1762.9 3890.67 1762.16 3889.85 1761.65C3888.99 1761.14 3888 1760.88 3887.01 1760.91C3885.91 1760.91 3884.95 1761.17 3884.13 1761.67C3883.27 1762.18 3882.62 1762.9 3882.18 1763.77C3881.7 1764.72 3881.42 1765.77 3881.46 1766.84ZM4278.03 1642.62V1639.34L4288.14 1628.86C4289.24 1627.72 4290.13 1626.73 4290.81 1625.87C4291.53 1625 4292.05 1624.18 4292.42 1623.4C4292.77 1622.62 4292.94 1621.8 4292.94 1620.92C4292.94 1619.93 4292.7 1619.07 4292.25 1618.35C4291.77 1617.62 4291.09 1617.04 4290.33 1616.67C4289.48 1616.27 4288.55 1616.06 4287.59 1616.07C4286.53 1616.07 4285.57 1616.29 4284.78 1616.73C4283.99 1617.15 4283.38 1617.8 4282.93 1618.59C4282.49 1619.45 4282.28 1620.42 4282.32 1621.39H4278C4278 1619.57 4278.41 1617.98 4279.27 1616.62C4280.09 1615.25 4281.25 1614.2 4282.69 1613.45C4284.17 1612.69 4285.81 1612.31 4287.69 1612.31C4289.54 1612.31 4291.22 1612.68 4292.63 1613.43C4294.07 1614.17 4295.2 1615.18 4296.02 1616.47C4296.81 1617.75 4297.22 1619.18 4297.22 1620.79C4297.22 1621.9 4297.01 1622.98 4296.6 1624.05C4296.19 1625.11 4295.47 1626.29 4294.44 1627.59C4293.42 1628.89 4292.01 1630.46 4290.2 1632.31L4284.23 1638.53V1638.74H4297.7V1642.62H4278.03Z" fill="#797F8A"/>
<path d="M4279.44 1529.57L4271.83 1502.17H4276.18L4281.53 1523.39H4281.77L4287.32 1502.17H4291.63L4297.18 1523.4H4297.46L4302.77 1502.16H4307.12L4299.51 1529.57H4295.37L4289.58 1509.04H4289.37L4283.62 1529.57H4279.44Z" fill="#9CA0A9"/>
<path d="M4277.83 1755.7C4277.83 1753.79 4278.24 1752.09 4279.09 1750.62C4279.92 1749.17 4281.12 1747.98 4282.59 1747.16C4284.13 1746.31 4285.88 1745.88 4287.66 1745.91C4289.54 1745.91 4291.22 1746.32 4292.73 1747.16C4294.24 1747.99 4295.44 1749.15 4296.29 1750.65C4297.15 1752.14 4297.6 1753.88 4297.56 1755.86C4297.56 1756.87 4297.42 1757.87 4297.15 1758.84C4296.84 1759.98 4296.4 1761.09 4295.85 1762.14C4295.23 1763.33 4294.44 1764.67 4293.42 1766.18L4286.63 1776.21H4281.87L4289.54 1764.99C4289.17 1765.1 4288.83 1765.2 4288.45 1765.28C4288.07 1765.35 4287.66 1765.38 4287.28 1765.38C4285.57 1765.41 4283.89 1764.98 4282.42 1764.12C4281.01 1763.3 4279.85 1762.12 4279.06 1760.69C4278.24 1759.24 4277.83 1757.58 4277.83 1755.7ZM4282.14 1755.63C4282.14 1756.81 4282.38 1757.85 4282.83 1758.75C4283.31 1759.65 4283.96 1760.35 4284.78 1760.86C4285.64 1761.36 4286.6 1761.61 4287.69 1761.61C4288.65 1761.64 4289.65 1761.39 4290.5 1760.89C4291.36 1760.38 4292.05 1759.65 4292.53 1758.77C4292.97 1757.87 4293.21 1756.84 4293.21 1755.69C4293.21 1754.51 4292.97 1753.47 4292.53 1752.56C4292.08 1751.69 4291.39 1750.95 4290.54 1750.43C4289.68 1749.91 4288.69 1749.64 4287.69 1749.66C4286.67 1749.63 4285.71 1749.88 4284.85 1750.4C4283.99 1750.91 4283.27 1751.65 4282.83 1752.55C4282.35 1753.5 4282.11 1754.56 4282.14 1755.63ZM4410.69 1634.82H4415.28C4415.35 1635.74 4415.7 1636.53 4416.21 1637.18C4416.76 1637.83 4417.48 1638.31 4418.33 1638.64C4419.22 1638.97 4420.18 1639.14 4421.28 1639.14C4422.41 1639.14 4423.44 1638.95 4424.36 1638.56C4425.25 1638.17 4425.97 1637.59 4426.52 1636.83C4427.04 1636.07 4427.31 1635.14 4427.31 1634.03C4427.31 1633.04 4427.07 1632.12 4426.59 1631.29C4426.04 1630.4 4425.25 1629.7 4424.33 1629.27C4423.3 1628.77 4421.97 1628.51 4420.32 1628.51H4417.65V1625.1L4424.84 1616.8V1616.59H4412.17V1612.72H4430.74V1615.99L4422.75 1625.16V1625.39C4424.12 1625.48 4425.39 1625.77 4426.49 1626.25C4427.62 1626.74 4428.58 1627.38 4429.4 1628.18C4430.19 1628.96 4430.8 1629.89 4431.25 1630.92C4431.66 1631.96 4431.87 1633.06 4431.87 1634.18C4431.87 1635.9 4431.42 1637.43 4430.5 1638.76C4429.54 1640.13 4428.24 1641.21 4426.73 1641.9C4425.12 1642.65 4423.3 1643.02 4421.21 1643.02C4419.43 1643.05 4417.65 1642.71 4416 1642.03C4414.53 1641.42 4413.26 1640.45 4412.27 1639.2C4411.31 1637.93 4410.76 1636.4 4410.69 1634.82Z" fill="#797F8A"/>
<path d="M4410.76 1505.73V1502.16H4431.97V1505.73H4423.44V1529.57H4419.29V1505.73H4410.76Z" fill="#9CA0A9"/>
<path d="M4412.61 1746.31V1776.21H4408.06V1750.84H4407.88L4400.76 1755.51V1751.19L4408.19 1746.31H4412.61ZM4431.11 1776.71C4428.82 1776.7 4426.86 1776.09 4425.22 1774.88C4423.58 1773.68 4422.34 1771.92 4421.45 1769.61C4420.6 1767.31 4420.15 1764.53 4420.15 1761.28C4420.15 1758.04 4420.6 1755.27 4421.45 1752.97C4422.34 1750.67 4423.61 1748.92 4425.22 1747.71C4426.86 1746.51 4428.85 1745.91 4431.11 1745.91C4433.41 1745.91 4435.36 1746.52 4437.01 1747.73C4438.65 1748.94 4439.88 1750.69 4440.78 1752.99C4441.63 1755.27 4442.08 1758.04 4442.08 1761.28C4442.08 1764.54 4441.63 1767.32 4440.78 1769.63C4439.92 1771.92 4438.65 1773.68 4437.04 1774.9C4435.4 1776.1 4433.44 1776.71 4431.11 1776.71ZM4431.11 1772.81C4433.17 1772.81 4434.74 1771.82 4435.88 1769.85C4437.01 1767.87 4437.59 1765.01 4437.59 1761.28C4437.59 1758.8 4437.35 1756.7 4436.8 1754.99C4436.29 1753.26 4435.53 1751.96 4434.57 1751.08C4433.65 1750.19 4432.42 1749.71 4431.11 1749.73C4429.13 1749.73 4427.55 1750.72 4426.39 1752.71C4425.22 1754.69 4424.67 1757.55 4424.64 1761.28C4424.64 1763.77 4424.91 1765.88 4425.43 1767.6C4425.94 1769.31 4426.69 1770.61 4427.65 1771.5C4428.61 1772.37 4429.78 1772.81 4431.11 1772.81ZM4543.8 1636.77V1633.13L4555.52 1612.72H4559.9L4548.49 1632.72V1632.95H4566.24V1636.77H4543.8ZM4557.98 1642.62V1635.7L4558.02 1634V1623.93H4562.27V1642.62H4557.98Z" fill="#797F8A"/>
</g>
</g>
<mask id="mask22_78_47" style="mask-type:luminance" maskUnits="userSpaceOnUse" x="-333" y="1311" width="1211" height="684">
<path d="M877.584 1571.08L-233.505 1311.99L-332.336 1735.66L778.754 1994.76L877.584 1571.08Z" fill="white"/>
</mask>
<g mask="url(#mask22_78_47)">
<g filter="url(#filter5_d_78_47)">
<path d="M755.748 1610.12L-148.665 1415.79C-167.165 1411.82 -185.384 1423.59 -189.36 1442.09L-232.551 1643.03C-236.527 1661.53 -224.752 1679.74 -206.253 1683.72L698.161 1878.04C716.659 1882.02 734.879 1870.25 738.857 1851.75L782.047 1650.81C786.021 1632.31 774.249 1614.09 755.748 1610.12Z" fill="white"/>
<path d="M755.748 1610.12L-148.665 1415.79C-167.165 1411.82 -185.384 1423.59 -189.36 1442.09L-232.551 1643.03C-236.527 1661.53 -224.752 1679.74 -206.253 1683.72L698.161 1878.04C716.659 1882.02 734.879 1870.25 738.857 1851.75L782.047 1650.81C786.021 1632.31 774.249 1614.09 755.748 1610.12Z" stroke="#E3E5EA"/>
</g>
<path opacity="0.1" d="M245.854 1553.12L-102.513 1478.26C-117.313 1475.09 -131.889 1484.5 -135.069 1499.3L-137.948 1512.69C-141.129 1527.49 -131.71 1542.06 -116.91 1545.25L231.457 1620.1C246.257 1623.28 260.833 1613.86 264.013 1599.06L266.892 1585.67C270.073 1570.87 260.653 1556.29 245.854 1553.12Z" fill="#797F8A" stroke="white"/>
<path opacity="0.1" d="M48.1616 1608.74L-122.672 1572.04C-137.472 1568.86 -152.048 1578.28 -155.228 1593.08L-158.108 1606.47C-161.288 1621.27 -151.869 1635.84 -137.069 1639.02L33.7646 1675.73C48.5645 1678.91 63.1404 1669.49 66.3209 1654.69L69.2002 1641.3C72.3807 1626.5 62.9616 1611.93 48.1616 1608.74Z" fill="#797F8A" stroke="white"/>
<path fill-rule="evenodd" clip-rule="evenodd" d="M678.947 1665.34C679.519 1664.97 680.215 1664.84 680.879 1664.98C681.544 1665.13 682.127 1665.53 682.497 1666.1L691.624 1680.22L705.743 1671.1C706.315 1670.73 707.014 1670.6 707.679 1670.74C708.344 1670.88 708.926 1671.29 709.296 1671.86C709.666 1672.43 709.793 1673.13 709.652 1673.79C709.508 1674.46 709.108 1675.04 708.532 1675.41L694.413 1684.53L703.537 1698.65C703.722 1698.93 703.848 1699.25 703.907 1699.58C703.968 1699.91 703.965 1700.25 703.893 1700.59C703.821 1700.91 703.687 1701.23 703.496 1701.51C703.304 1701.78 703.06 1702.02 702.776 1702.2C702.492 1702.39 702.176 1702.51 701.844 1702.57C701.512 1702.63 701.169 1702.63 700.84 1702.56C700.511 1702.49 700.196 1702.35 699.919 1702.16C699.641 1701.97 699.405 1701.73 699.22 1701.44L690.096 1687.32L675.977 1696.44C675.696 1696.63 675.377 1696.75 675.045 1696.81C674.716 1696.87 674.373 1696.87 674.044 1696.8C673.715 1696.73 673.4 1696.59 673.123 1696.4C672.845 1696.21 672.609 1695.97 672.424 1695.68C672.242 1695.4 672.115 1695.08 672.057 1694.75C671.995 1694.42 671.999 1694.08 672.071 1693.75C672.143 1693.42 672.276 1693.1 672.468 1692.83C672.66 1692.55 672.907 1692.31 673.188 1692.13L687.307 1683L678.18 1668.89C677.813 1668.32 677.686 1667.62 677.827 1666.95C677.971 1666.29 678.375 1665.71 678.947 1665.34Z" fill="#D1D5DB"/>
</g>
<mask id="mask23_78_47" style="mask-type:luminance" maskUnits="userSpaceOnUse" x="2093" y="1839" width="1047" height="752">
<path d="M3075.51 1839.52L2093.38 1934.84L2157.05 2590.7L3139.18 2495.38L3075.51 1839.52Z" fill="white"/>
</mask>
<g mask="url(#mask23_78_47)">
<g filter="url(#filter6_d_78_47)">
<path d="M2989.25 1904.55L2190.53 1982.07C2174.2 1983.66 2162.24 1998.17 2163.82 2014.48L2209.71 2487.18C2211.29 2503.49 2225.82 2515.43 2242.16 2513.85L3040.88 2436.33C3057.22 2434.75 3069.18 2420.23 3067.59 2403.92L3021.7 1931.23C3020.12 1914.91 3005.59 1902.97 2989.25 1904.55Z" fill="white"/>
<path d="M2989.25 1904.55L2190.53 1982.07C2174.2 1983.66 2162.24 1998.17 2163.82 2014.48L2209.71 2487.18C2211.29 2503.49 2225.82 2515.43 2242.16 2513.85L3040.88 2436.33C3057.22 2434.75 3069.18 2420.23 3067.59 2403.92L3021.7 1931.23C3020.12 1914.91 3005.59 1902.97 2989.25 1904.55Z" stroke="#E3E5EA"/>
</g>
<path fill-rule="evenodd" clip-rule="evenodd" d="M2942.62 1994.16C2943.08 1994.54 2943.66 1994.71 2944.25 1994.66C2944.84 1994.6 2945.38 1994.31 2945.76 1993.86L2955.03 1982.61L2966.28 1991.86C2966.51 1992.06 2966.77 1992.21 2967.06 1992.31C2967.34 1992.4 2967.64 1992.44 2967.94 1992.42C2968.24 1992.39 2968.53 1992.31 2968.79 1992.17C2969.06 1992.03 2969.29 1991.84 2969.48 1991.61C2969.67 1991.38 2969.81 1991.11 2969.9 1990.83C2969.99 1990.54 2970.01 1990.24 2969.98 1989.94C2969.94 1989.64 2969.85 1989.36 2969.7 1989.1C2969.55 1988.84 2969.35 1988.61 2969.12 1988.43L2957.86 1979.17L2967.13 1967.93C2967.33 1967.7 2967.48 1967.44 2967.57 1967.16C2967.67 1966.87 2967.7 1966.57 2967.68 1966.28C2967.66 1965.98 2967.57 1965.69 2967.43 1965.42C2967.3 1965.16 2967.1 1964.92 2966.87 1964.73C2966.64 1964.54 2966.37 1964.4 2966.09 1964.32C2965.8 1964.23 2965.5 1964.21 2965.2 1964.24C2964.9 1964.28 2964.62 1964.37 2964.36 1964.51C2964.1 1964.66 2963.87 1964.86 2963.69 1965.1L2954.42 1976.35L2943.16 1967.09C2942.93 1966.89 2942.67 1966.74 2942.39 1966.65C2942.1 1966.55 2941.8 1966.52 2941.5 1966.54C2941.21 1966.56 2940.91 1966.65 2940.65 1966.79C2940.38 1966.92 2940.15 1967.12 2939.96 1967.34C2939.77 1967.57 2939.63 1967.84 2939.54 1968.13C2939.46 1968.42 2939.43 1968.72 2939.47 1969.01C2939.5 1969.31 2939.6 1969.6 2939.74 1969.86C2939.89 1970.12 2940.09 1970.35 2940.33 1970.53L2951.58 1979.78L2942.32 1991.03C2941.94 1991.48 2941.76 1992.07 2941.82 1992.66C2941.88 1993.25 2942.16 1993.79 2942.62 1994.16Z" fill="#9DA3AE"/>
<path opacity="0.1" d="M2390.43 2380.17L2283.94 2390.51C2264.33 2392.41 2249.98 2409.82 2251.88 2429.4C2253.78 2448.98 2271.21 2463.31 2290.82 2461.41L2397.31 2451.07C2416.92 2449.17 2431.27 2431.76 2429.37 2412.18C2427.47 2392.6 2410.04 2378.27 2390.43 2380.17Z" fill="#797F8A" stroke="white"/>
<path opacity="0.1" d="M2573.84 2362.37L2496.93 2369.84C2477.32 2371.74 2462.97 2389.15 2464.87 2408.73C2466.77 2428.31 2484.2 2442.64 2503.81 2440.74L2580.72 2433.27C2600.33 2431.37 2614.68 2413.96 2612.78 2394.38C2610.88 2374.8 2593.45 2360.47 2573.84 2362.37Z" fill="#797F8A" stroke="white"/>
</g>
<mask id="mask24_78_47" style="mask-type:luminance" maskUnits="userSpaceOnUse" x="1164" y="139" width="1214" height="880">
<path d="M2295.43 139.213L1164.67 262.643L1247.21 1018.62L2377.98 895.195L2295.43 139.213Z" fill="white"/>
</mask>
<g mask="url(#mask24_78_47)">
<g opacity="0.6">
<g filter="url(#filter7_d_78_47)">
<path d="M2195.19 213.963L1275.59 314.342C1256.78 316.396 1243.2 333.306 1245.25 352.113L1304.74 896.964C1306.8 915.771 1323.71 929.353 1342.52 927.301L2262.12 826.922C2280.93 824.867 2294.51 807.958 2292.46 789.148L2232.96 244.298C2230.91 225.491 2214 211.91 2195.19 213.963Z" fill="white"/>
<path d="M2195.19 213.963L1275.59 314.342C1256.78 316.396 1243.2 333.306 1245.25 352.113L1304.74 896.964C1306.8 915.771 1323.71 929.353 1342.52 927.301L2262.12 826.922C2280.93 824.867 2294.51 807.958 2292.46 789.148L2232.96 244.298C2230.91 225.491 2214 211.91 2195.19 213.963Z" stroke="#E3E5EA"/>
</g>
<path opacity="0.5" d="M1462.96 767.704L2212.26 685.912M1444.36 597.437L2193.67 515.645M1425.77 427.17L2175.07 345.381" stroke="#D2D5DA"/>
<path opacity="0.5" d="M1414.78 736.782L1363.68 742.355C1359.92 742.766 1357.21 746.151 1357.62 749.912L1358.36 756.722C1358.77 760.483 1362.16 763.2 1365.92 762.789L1417.01 757.212C1420.77 756.801 1423.48 753.42 1423.07 749.659L1422.33 742.849C1421.92 739.087 1418.54 736.371 1414.78 736.782Z" fill="#D2D5DA"/>
<path opacity="0.5" d="M1396.18 566.515L1345.09 572.092C1341.33 572.503 1338.62 575.884 1339.02 579.645L1339.77 586.455C1340.18 590.216 1343.56 592.933 1347.32 592.522L1398.41 586.945C1402.17 586.537 1404.89 583.153 1404.48 579.391L1403.74 572.581C1403.32 568.82 1399.94 566.104 1396.18 566.515Z" fill="#D2D5DA"/>
<path opacity="0.5" d="M1377.59 396.247L1326.5 401.824C1322.74 402.235 1320.02 405.616 1320.43 409.378L1321.18 416.191C1321.59 419.952 1324.97 422.669 1328.73 422.258L1379.82 416.681C1383.58 416.27 1386.3 412.889 1385.89 409.128L1385.15 402.314C1384.73 398.553 1381.35 395.836 1377.59 396.247Z" fill="#D2D5DA"/>
<path opacity="0.5" d="M1565.63 792.677L1514.54 798.254C1510.78 798.665 1508.06 802.046 1508.47 805.807L1509.22 812.62C1509.63 816.382 1513.01 819.098 1516.77 818.687L1567.86 813.11C1571.62 812.699 1574.34 809.318 1573.93 805.557L1573.19 798.744C1572.78 794.982 1569.39 792.266 1565.63 792.677Z" fill="#D2D5DA"/>
<path d="M1494.66 710.83C1494.26 707.22 1495.32 703.599 1497.6 700.762C1499.87 697.929 1503.18 696.117 1506.79 695.723L1557.88 690.147C1561.5 689.753 1565.12 690.808 1567.95 693.086C1570.79 695.36 1572.6 698.669 1572.99 702.28L1578.57 753.362L1500.23 761.912L1494.66 710.83ZM1610.95 639.558C1610.55 635.944 1611.61 632.323 1613.89 629.49C1616.16 626.657 1619.47 624.842 1623.09 624.448L1674.17 618.871C1677.79 618.477 1681.41 619.536 1684.24 621.81C1687.08 624.085 1688.89 627.394 1689.29 631.004L1701.18 739.975L1622.85 748.528L1610.95 639.558ZM1713.11 438.879C1712.72 435.268 1713.77 431.647 1716.05 428.814C1718.33 425.978 1721.63 424.166 1725.25 423.772L1776.33 418.195C1779.95 417.801 1783.57 418.856 1786.4 421.134C1789.24 423.409 1791.05 426.718 1791.45 430.328L1823.8 726.591L1745.46 735.145L1713.11 438.879ZM1843.84 531.434C1843.45 527.82 1844.51 524.199 1846.78 521.366C1849.06 518.533 1852.37 516.718 1855.98 516.324L1907.07 510.747C1910.68 510.353 1914.31 511.411 1917.14 513.686C1919.97 515.961 1921.79 519.27 1922.18 522.884L1943 713.581L1864.67 722.131L1843.84 531.434ZM1978.79 599.404C1978.39 595.793 1979.45 592.172 1981.72 589.339C1984 586.503 1987.31 584.691 1990.92 584.297L2042.01 578.72C2045.63 578.326 2049.25 579.381 2052.08 581.659C2054.91 583.934 2056.73 587.243 2057.12 590.853L2069.02 699.824L1990.69 708.374L1978.79 599.404ZM2098.8 562.185C2098.4 558.571 2099.46 554.95 2101.74 552.117C2104.01 549.284 2107.32 547.469 2110.94 547.075L2162.02 541.498C2165.64 541.104 2169.26 542.163 2172.09 544.437C2174.93 546.712 2176.74 550.021 2177.13 553.631L2191.64 686.44L2113.3 694.99L2098.8 562.185Z" fill="#CDCDCD"/>
<path opacity="0.5" d="M1534.67 761.6L1538.07 761.227L1539.93 778.252L1536.52 778.625L1534.67 761.6Z" fill="#D2D5DA"/>
<path opacity="0.5" d="M1688.24 779.293L1637.16 784.87C1633.39 785.281 1630.68 788.662 1631.09 792.423L1631.83 799.237C1632.24 802.998 1635.63 805.714 1639.39 805.303L1690.47 799.727C1694.24 799.315 1696.95 795.931 1696.54 792.17L1695.8 785.36C1695.39 781.598 1692.01 778.882 1688.24 779.293Z" fill="#D2D5DA"/>
<path opacity="0.5" d="M1657.28 748.213L1660.68 747.843L1662.54 764.868L1659.14 765.242L1657.28 748.213Z" fill="#D2D5DA"/>
<path opacity="0.5" d="M1810.86 765.91L1759.77 771.486C1756.01 771.897 1753.29 775.278 1753.7 779.04L1754.44 785.85C1754.86 789.611 1758.24 792.327 1762 791.92L1813.09 786.343C1816.85 785.932 1819.56 782.547 1819.16 778.786L1818.41 771.976C1818 768.215 1814.62 765.498 1810.86 765.91Z" fill="#D2D5DA"/>
<path opacity="0.5" d="M1779.89 734.829L1783.3 734.459L1785.16 751.484L1781.75 751.858L1779.89 734.829Z" fill="#D2D5DA"/>
<path opacity="0.5" d="M1933.47 752.526L1882.38 758.103C1878.62 758.514 1875.9 761.895 1876.31 765.656L1877.06 772.466C1877.47 776.227 1880.85 778.944 1884.61 778.533L1935.7 772.959C1939.46 772.548 1942.18 769.164 1941.77 765.402L1941.03 758.592C1940.61 754.831 1937.23 752.115 1933.47 752.526Z" fill="#D2D5DA"/>
<path opacity="0.5" d="M1902.51 721.446L1905.91 721.076L1907.77 738.101L1904.36 738.474L1902.51 721.446Z" fill="#D2D5DA"/>
<path opacity="0.5" d="M2056.08 739.142L2005 744.719C2001.23 745.13 1998.52 748.511 1998.92 752.272L1999.67 759.082C2000.08 762.844 2003.46 765.56 2007.23 765.149L2058.31 759.572C2062.07 759.165 2064.79 755.78 2064.38 752.019L2063.64 745.209C2063.23 741.448 2059.84 738.731 2056.08 739.142Z" fill="#D2D5DA"/>
<path opacity="0.5" d="M2025.12 708.062L2028.52 707.692L2030.38 724.717L2026.98 725.091L2025.12 708.062Z" fill="#D2D5DA"/>
<path opacity="0.5" d="M2178.7 725.758L2127.61 731.335C2123.84 731.746 2121.13 735.127 2121.54 738.889L2122.28 745.699C2122.69 749.46 2126.08 752.176 2129.84 751.765L2180.93 746.188C2184.69 745.777 2187.41 742.396 2187 738.635L2186.25 731.825C2185.84 728.064 2182.46 725.347 2178.7 725.758Z" fill="#D2D5DA"/>
<path opacity="0.5" d="M2147.73 694.679L2151.13 694.309L2152.99 711.334L2149.59 711.707L2147.73 694.679Z" fill="#D2D5DA"/>
</g>
</g>
<mask id="mask25_78_47" style="mask-type:luminance" maskUnits="userSpaceOnUse" x="966" y="1150" width="772" height="399">
<path d="M1737.06 1150.99H966.175V1548.35H1737.06V1150.99Z" fill="white"/>
</mask>
<g mask="url(#mask25_78_47)">
<g opacity="0.7">
<g filter="url(#filter8_d_78_47)">
<path d="M1655.46 1375.72L1090.21 1395.4C1078.65 1395.8 1069.6 1405.49 1070 1417.04L1072.2 1479.75C1072.61 1491.3 1082.31 1500.34 1093.87 1499.93L1659.11 1480.25C1670.68 1479.85 1679.72 1470.16 1679.32 1458.62L1677.12 1395.9C1676.72 1384.35 1667.02 1375.32 1655.46 1375.72Z" fill="white"/>
<path d="M1655.46 1375.72L1090.21 1395.4C1078.65 1395.8 1069.6 1405.49 1070 1417.04L1072.2 1479.75C1072.61 1491.3 1082.31 1500.34 1093.87 1499.93L1659.11 1480.25C1670.68 1479.85 1679.72 1470.16 1679.32 1458.62L1677.12 1395.9C1676.72 1384.35 1667.02 1375.32 1655.46 1375.72Z" stroke="#E3E5EA"/>
</g>
<path opacity="0.1" d="M1137.1 1477.5C1154.44 1476.89 1168.01 1462.37 1167.4 1445.05C1166.8 1427.74 1152.25 1414.19 1134.91 1414.8C1117.56 1415.4 1103.99 1429.93 1104.6 1447.24C1105.21 1464.56 1119.76 1478.1 1137.1 1477.5Z" fill="#767676"/>
<path fill-rule="evenodd" clip-rule="evenodd" d="M1618.16 1419.86C1618.45 1419.55 1618.84 1419.37 1619.25 1419.36C1619.67 1419.34 1620.08 1419.5 1620.38 1419.78L1627.9 1426.77L1634.91 1419.27C1635.05 1419.12 1635.22 1419 1635.41 1418.91C1635.59 1418.82 1635.8 1418.78 1636.01 1418.77C1636.21 1418.76 1636.42 1418.79 1636.61 1418.87C1636.81 1418.94 1636.99 1419.05 1637.14 1419.19C1637.29 1419.33 1637.41 1419.5 1637.5 1419.69C1637.58 1419.88 1637.63 1420.08 1637.64 1420.29C1637.64 1420.49 1637.61 1420.7 1637.53 1420.89C1637.46 1421.08 1637.35 1421.26 1637.21 1421.41L1630.2 1428.92L1637.72 1435.91C1637.87 1436.05 1637.99 1436.23 1638.07 1436.41C1638.16 1436.6 1638.21 1436.8 1638.22 1437.01C1638.23 1437.22 1638.19 1437.42 1638.12 1437.62C1638.05 1437.81 1637.94 1437.99 1637.8 1438.14C1637.66 1438.29 1637.49 1438.41 1637.3 1438.5C1637.11 1438.58 1636.91 1438.63 1636.7 1438.64C1636.49 1438.64 1636.29 1438.61 1636.09 1438.53C1635.9 1438.46 1635.72 1438.35 1635.57 1438.21L1628.06 1431.21L1621.04 1438.72C1620.9 1438.87 1620.74 1438.99 1620.55 1439.08C1620.36 1439.16 1620.16 1439.21 1619.95 1439.22C1619.74 1439.23 1619.54 1439.2 1619.34 1439.12C1619.15 1439.05 1618.97 1438.94 1618.82 1438.8C1618.67 1438.66 1618.55 1438.49 1618.46 1438.3C1618.37 1438.11 1618.33 1437.91 1618.32 1437.7C1618.31 1437.5 1618.35 1437.29 1618.42 1437.1C1618.49 1436.9 1618.6 1436.73 1618.75 1436.58L1625.76 1429.07L1618.24 1422.07C1617.94 1421.79 1617.75 1421.4 1617.74 1420.98C1617.73 1420.56 1617.88 1420.16 1618.16 1419.86Z" fill="#D1D5DB"/>
<path fill-rule="evenodd" clip-rule="evenodd" d="M1118.73 1446.75C1118.57 1442.18 1120.24 1437.73 1123.36 1434.38C1126.49 1431.03 1130.82 1429.06 1135.4 1428.9C1139.98 1428.74 1144.43 1430.41 1147.79 1433.53C1151.14 1436.65 1153.11 1440.97 1153.27 1445.54C1153.35 1447.81 1152.98 1450.07 1152.19 1452.19C1151.4 1454.31 1150.19 1456.26 1148.64 1457.91C1147.09 1459.57 1145.23 1460.91 1143.17 1461.85C1141.1 1462.79 1138.87 1463.31 1136.61 1463.39C1134.34 1463.47 1132.08 1463.1 1129.95 1462.31C1127.82 1461.51 1125.87 1460.31 1124.22 1458.77C1122.55 1457.22 1121.22 1455.36 1120.28 1453.3C1119.33 1451.24 1118.81 1449.01 1118.73 1446.75ZM1135.29 1425.77C1124.01 1426.16 1115.2 1435.61 1115.59 1446.86C1115.98 1458.12 1125.44 1466.92 1136.72 1466.52C1147.99 1466.13 1156.81 1456.69 1156.41 1445.44C1156.02 1434.18 1146.56 1425.37 1135.29 1425.77ZM1130.58 1438.95C1130.42 1438.81 1130.25 1438.7 1130.05 1438.63C1129.86 1438.56 1129.65 1438.52 1129.45 1438.53C1129.24 1438.53 1129.04 1438.58 1128.85 1438.67C1128.66 1438.75 1128.49 1438.87 1128.35 1439.02C1128.21 1439.18 1128.1 1439.35 1128.03 1439.55C1127.96 1439.74 1127.92 1439.94 1127.93 1440.15C1127.94 1440.36 1127.99 1440.56 1128.07 1440.74C1128.16 1440.93 1128.28 1441.1 1128.43 1441.24L1133.78 1446.22L1128.79 1451.57C1128.65 1451.72 1128.54 1451.89 1128.47 1452.09C1128.39 1452.28 1128.36 1452.49 1128.37 1452.69C1128.37 1452.9 1128.42 1453.1 1128.5 1453.29C1128.59 1453.48 1128.71 1453.65 1128.86 1453.79C1129.01 1453.93 1129.19 1454.04 1129.39 1454.11C1129.58 1454.18 1129.79 1454.22 1129.99 1454.21C1130.2 1454.2 1130.4 1454.15 1130.59 1454.07C1130.78 1453.98 1130.95 1453.86 1131.09 1453.71L1136.08 1448.36L1141.43 1453.35C1141.58 1453.49 1141.76 1453.6 1141.95 1453.67C1142.15 1453.74 1142.35 1453.78 1142.56 1453.77C1142.77 1453.76 1142.97 1453.72 1143.16 1453.63C1143.34 1453.55 1143.52 1453.43 1143.66 1453.27C1143.8 1453.12 1143.91 1452.95 1143.98 1452.75C1144.05 1452.56 1144.08 1452.35 1144.08 1452.14C1144.07 1451.94 1144.02 1451.74 1143.93 1451.55C1143.85 1451.36 1143.73 1451.19 1143.57 1451.05L1138.22 1446.07L1143.21 1440.73C1143.36 1440.58 1143.46 1440.4 1143.54 1440.21C1143.61 1440.01 1143.65 1439.81 1143.64 1439.6C1143.63 1439.39 1143.58 1439.19 1143.5 1439C1143.41 1438.82 1143.29 1438.65 1143.14 1438.5C1142.99 1438.36 1142.81 1438.25 1142.62 1438.18C1142.42 1438.11 1142.22 1438.08 1142.01 1438.09C1141.8 1438.09 1141.6 1438.14 1141.41 1438.23C1141.22 1438.32 1141.05 1438.44 1140.92 1438.59L1135.92 1443.93L1130.57 1438.95H1130.58Z" fill="#767676"/>
<path opacity="0.2" d="M1401.29 1420.16L1208.69 1426.87C1204.06 1427.03 1200.45 1430.91 1200.61 1435.52L1201.19 1452.24C1201.35 1456.86 1205.23 1460.48 1209.86 1460.31L1402.46 1453.6C1407.09 1453.44 1410.7 1449.56 1410.54 1444.95L1409.96 1428.22C1409.8 1423.61 1405.92 1420 1401.29 1420.16Z" fill="#767676"/>
<g filter="url(#filter9_d_78_47)">
<path d="M1596.62 1283.22L1031.11 1293.07C1019.54 1293.26 1010.33 1302.79 1010.53 1314.34L1011.63 1377.08C1011.83 1388.63 1021.37 1397.83 1032.94 1397.63L1598.45 1387.79C1610.01 1387.59 1619.23 1378.06 1619.03 1366.51L1617.93 1303.77C1617.73 1292.22 1608.18 1283.02 1596.62 1283.22Z" fill="white"/>
<path d="M1596.62 1283.22L1031.11 1293.07C1019.54 1293.26 1010.33 1302.79 1010.53 1314.34L1011.63 1377.08C1011.83 1388.63 1021.37 1397.83 1032.94 1397.63L1598.45 1387.79C1610.01 1387.59 1619.23 1378.06 1619.03 1366.51L1617.93 1303.77C1617.73 1292.22 1608.18 1283.02 1596.62 1283.22Z" stroke="#E3E5EA"/>
</g>
<path opacity="0.1" d="M1076.56 1375.95C1093.91 1375.65 1107.73 1361.36 1107.43 1344.04C1107.12 1326.72 1092.81 1312.92 1075.46 1313.22C1058.11 1313.52 1044.29 1327.81 1044.59 1345.13C1044.89 1362.46 1059.21 1376.25 1076.56 1375.95Z" fill="#020202"/>
<path fill-rule="evenodd" clip-rule="evenodd" d="M1058.73 1344.89C1058.67 1342.61 1059.07 1340.35 1059.89 1338.22C1060.72 1336.1 1061.95 1334.16 1063.53 1332.52C1065.11 1330.87 1067 1329.56 1069.09 1328.65C1071.18 1327.73 1073.43 1327.24 1075.71 1327.2C1077.99 1327.16 1080.25 1327.57 1082.37 1328.41C1084.49 1329.25 1086.43 1330.5 1088.06 1332.09C1089.69 1333.68 1091 1335.57 1091.9 1337.67C1092.8 1339.76 1093.27 1342.01 1093.29 1344.29C1093.33 1348.84 1091.58 1353.22 1088.39 1356.49C1085.21 1359.75 1080.87 1361.63 1076.31 1361.71C1071.75 1361.78 1067.34 1360.06 1064.05 1356.91C1060.76 1353.76 1058.85 1349.44 1058.73 1344.89ZM1075.65 1324.2C1064.38 1324.4 1055.39 1333.68 1055.59 1344.94C1055.79 1356.2 1065.09 1365.17 1076.37 1364.97C1087.64 1364.78 1096.63 1355.49 1096.43 1344.23C1096.24 1332.97 1086.93 1324 1075.65 1324.2ZM1085.41 1339.26C1085.7 1338.96 1085.86 1338.56 1085.85 1338.14C1085.84 1337.72 1085.67 1337.33 1085.37 1337.04C1085.07 1336.75 1084.67 1336.59 1084.25 1336.6C1083.83 1336.61 1083.44 1336.78 1083.15 1337.08L1073.95 1346.59L1070.82 1343.57C1070.67 1343.42 1070.49 1343.31 1070.3 1343.24C1070.11 1343.16 1069.91 1343.13 1069.7 1343.13C1069.49 1343.13 1069.29 1343.18 1069.1 1343.26C1068.91 1343.34 1068.74 1343.46 1068.6 1343.61C1068.45 1343.76 1068.34 1343.93 1068.26 1344.12C1068.19 1344.31 1068.15 1344.52 1068.16 1344.72C1068.16 1344.93 1068.2 1345.13 1068.29 1345.32C1068.37 1345.51 1068.49 1345.68 1068.63 1345.83L1072.9 1349.94C1073.2 1350.22 1073.6 1350.38 1074.02 1350.37C1074.43 1350.37 1074.83 1350.19 1075.12 1349.89L1085.41 1339.26Z" fill="#020202"/>
<path fill-rule="evenodd" clip-rule="evenodd" d="M1558.56 1326.7C1558.85 1326.4 1559.25 1326.23 1559.66 1326.22C1560.08 1326.21 1560.48 1326.37 1560.78 1326.66L1568.17 1333.79L1575.31 1326.41C1575.45 1326.26 1575.63 1326.13 1575.82 1326.04C1576.01 1325.95 1576.22 1325.9 1576.43 1325.9C1576.64 1325.89 1576.85 1325.93 1577.04 1326C1577.24 1326.08 1577.42 1326.19 1577.57 1326.34C1577.72 1326.48 1577.84 1326.66 1577.93 1326.85C1578.01 1327.04 1578.05 1327.25 1578.05 1327.46C1578.05 1327.67 1578.01 1327.88 1577.93 1328.07C1577.85 1328.27 1577.73 1328.44 1577.58 1328.59L1570.44 1335.97L1577.83 1343.1C1577.98 1343.24 1578.1 1343.41 1578.18 1343.6C1578.26 1343.79 1578.31 1344 1578.31 1344.2C1578.31 1344.41 1578.27 1344.61 1578.2 1344.8C1578.12 1344.99 1578.01 1345.17 1577.87 1345.32C1577.72 1345.47 1577.55 1345.59 1577.36 1345.67C1577.17 1345.75 1576.97 1345.79 1576.76 1345.8C1576.56 1345.8 1576.35 1345.76 1576.16 1345.69C1575.97 1345.61 1575.79 1345.5 1575.65 1345.36L1568.25 1338.23L1561.11 1345.61C1560.97 1345.76 1560.8 1345.88 1560.61 1345.96C1560.42 1346.04 1560.22 1346.09 1560.01 1346.09C1559.59 1346.1 1559.19 1345.94 1558.89 1345.65C1558.59 1345.36 1558.42 1344.96 1558.41 1344.55C1558.4 1344.13 1558.56 1343.73 1558.85 1343.43L1565.99 1336.05L1558.59 1328.92C1558.45 1328.78 1558.33 1328.61 1558.25 1328.42C1558.16 1328.23 1558.12 1328.03 1558.12 1327.82C1558.12 1327.61 1558.15 1327.41 1558.23 1327.21C1558.3 1327.03 1558.42 1326.85 1558.56 1326.7Z" fill="#D1D5DB"/>
<path opacity="0.2" d="M1299.82 1323.95L1149.02 1326.58C1144.4 1326.66 1140.71 1330.47 1140.79 1335.09L1141.08 1351.82C1141.16 1356.44 1144.98 1360.12 1149.61 1360.04L1300.41 1357.41C1305.04 1357.33 1308.72 1353.52 1308.64 1348.9L1308.35 1332.17C1308.27 1327.55 1304.45 1323.87 1299.82 1323.95Z" fill="#020202"/>
<g filter="url(#filter10_d_78_47)">
<path d="M1671.76 1200.93L1106.26 1191.09C1094.69 1190.89 1085.15 1200.09 1084.95 1211.64L1083.85 1274.38C1083.65 1285.93 1092.86 1295.45 1104.43 1295.65L1669.93 1305.5C1681.5 1305.7 1691.04 1296.5 1691.25 1284.95L1692.35 1222.21C1692.55 1210.66 1683.33 1201.13 1671.76 1200.93Z" fill="white"/>
<path d="M1671.76 1200.93L1106.26 1191.09C1094.69 1190.89 1085.15 1200.09 1084.95 1211.64L1083.85 1274.38C1083.65 1285.93 1092.86 1295.45 1104.43 1295.65L1669.93 1305.5C1681.5 1305.7 1691.04 1296.5 1691.25 1284.95L1692.35 1222.21C1692.55 1210.66 1683.33 1201.13 1671.76 1200.93Z" stroke="#E3E5EA"/>
</g>
<path opacity="0.1" d="M1148.78 1275.5C1166.13 1275.8 1180.44 1262 1180.74 1244.68C1181.05 1227.36 1167.23 1213.07 1149.88 1212.77C1132.52 1212.46 1118.21 1226.26 1117.91 1243.58C1117.6 1260.91 1131.43 1275.19 1148.78 1275.5Z" fill="#4D5051"/>
<path fill-rule="evenodd" clip-rule="evenodd" d="M1149.63 1226.88C1147.36 1226.84 1145.11 1227.25 1142.99 1228.08C1140.88 1228.91 1138.96 1230.14 1137.32 1231.72C1135.69 1233.29 1134.38 1235.17 1133.48 1237.25C1132.57 1239.33 1132.09 1241.57 1132.05 1243.83C1132.01 1246.09 1132.42 1248.35 1133.25 1250.45C1134.08 1252.56 1135.32 1254.49 1136.9 1256.12C1138.47 1257.75 1140.35 1259.05 1142.44 1259.95C1144.52 1260.86 1146.76 1261.34 1149.03 1261.38C1153.61 1261.46 1158.04 1259.72 1161.33 1256.54C1164.63 1253.36 1166.53 1249.01 1166.61 1244.43C1166.69 1239.86 1164.94 1235.44 1161.76 1232.14C1158.57 1228.85 1154.21 1226.96 1149.63 1226.88ZM1128.91 1243.77C1129.1 1232.51 1138.4 1223.55 1149.68 1223.75C1160.96 1223.94 1169.95 1233.23 1169.75 1244.49C1169.55 1255.75 1160.25 1264.72 1148.97 1264.52C1137.69 1264.32 1128.71 1255.04 1128.91 1243.77ZM1149.39 1240.47C1149.81 1240.48 1150.2 1240.65 1150.5 1240.95C1150.78 1241.25 1150.94 1241.65 1150.93 1242.07L1150.75 1252.52C1150.75 1252.94 1150.57 1253.34 1150.27 1253.62C1149.97 1253.91 1149.57 1254.07 1149.15 1254.07C1148.74 1254.06 1148.34 1253.88 1148.05 1253.59C1147.76 1253.28 1147.6 1252.88 1147.61 1252.47L1147.79 1242.01C1147.8 1241.8 1147.84 1241.6 1147.92 1241.41C1148 1241.23 1148.12 1241.05 1148.27 1240.91C1148.42 1240.77 1148.59 1240.65 1148.79 1240.58C1148.98 1240.5 1149.19 1240.47 1149.39 1240.47ZM1149.44 1237.86C1149.71 1237.86 1149.98 1237.81 1150.24 1237.71C1150.5 1237.61 1150.73 1237.46 1150.93 1237.27C1151.13 1237.08 1151.28 1236.85 1151.39 1236.6C1151.5 1236.35 1151.56 1236.08 1151.57 1235.8C1151.57 1235.53 1151.52 1235.26 1151.42 1235C1151.32 1234.74 1151.17 1234.51 1150.98 1234.31C1150.79 1234.11 1150.56 1233.96 1150.31 1233.85C1150.06 1233.74 1149.79 1233.68 1149.51 1233.67C1148.95 1233.67 1148.42 1233.87 1148.02 1234.26C1147.62 1234.65 1147.39 1235.17 1147.38 1235.73C1147.37 1236.28 1147.58 1236.82 1147.97 1237.22C1148.35 1237.62 1148.88 1237.85 1149.44 1237.86Z" fill="#4D5051"/>
<path fill-rule="evenodd" clip-rule="evenodd" d="M1632.21 1243.07C1632.35 1242.93 1632.53 1242.82 1632.72 1242.74C1632.91 1242.66 1633.12 1242.63 1633.33 1242.63C1633.53 1242.63 1633.73 1242.68 1633.93 1242.76C1634.11 1242.84 1634.29 1242.96 1634.43 1243.11L1641.57 1250.49L1648.96 1243.36C1649.26 1243.07 1649.67 1242.91 1650.08 1242.92C1650.5 1242.93 1650.9 1243.1 1651.19 1243.4C1651.47 1243.7 1651.63 1244.1 1651.63 1244.52C1651.62 1244.94 1651.44 1245.33 1651.15 1245.62L1643.75 1252.75L1650.89 1260.13C1651.18 1260.43 1651.34 1260.83 1651.33 1261.25C1651.32 1261.66 1651.15 1262.06 1650.85 1262.35C1650.55 1262.64 1650.15 1262.8 1649.73 1262.79C1649.32 1262.78 1648.92 1262.61 1648.63 1262.31L1641.49 1254.93L1634.1 1262.06C1633.8 1262.34 1633.39 1262.5 1632.98 1262.5C1632.56 1262.49 1632.16 1262.32 1631.88 1262.02C1631.59 1261.72 1631.43 1261.31 1631.43 1260.9C1631.44 1260.48 1631.62 1260.09 1631.91 1259.8L1639.31 1252.67L1632.17 1245.29C1631.88 1244.99 1631.72 1244.59 1631.73 1244.17C1631.74 1243.75 1631.91 1243.36 1632.21 1243.07Z" fill="#D1D5DB"/>
<path opacity="0.2" d="M1457.51 1232.77L1222.92 1228.68C1218.3 1228.6 1214.48 1232.28 1214.4 1236.9L1214.11 1253.63C1214.03 1258.24 1217.71 1262.06 1222.34 1262.14L1456.92 1266.23C1461.55 1266.3 1465.36 1262.63 1465.44 1258.01L1465.74 1241.28C1465.82 1236.66 1462.13 1232.85 1457.51 1232.77Z" fill="#4D5051"/>
</g>
</g>
<mask id="mask26_78_47" style="mask-type:luminance" maskUnits="userSpaceOnUse" x="2418" y="-72" width="584" height="401">
<path d="M3001.31 -71.9368H2418.86V328.853H3001.31V-71.9368Z" fill="white"/>
</mask>
<g mask="url(#mask26_78_47)">
<g opacity="0.5">
<g filter="url(#filter11_d_78_47)">
<path d="M2957.31 -57.3247H2462.86C2448.98 -57.3247 2437.72 -46.1098 2437.72 -32.2753V21.9984C2437.72 35.8329 2448.98 47.0478 2462.86 47.0478H2957.31C2971.2 47.0478 2982.45 35.8329 2982.45 21.9984V-32.2753C2982.45 -46.1098 2971.2 -57.3247 2957.31 -57.3247Z" fill="white"/>
<path d="M2957.31 -57.3247H2462.86C2448.98 -57.3247 2437.72 -46.1098 2437.72 -32.2753V21.9984C2437.72 35.8329 2448.98 47.0478 2462.86 47.0478H2957.31C2971.2 47.0478 2982.45 35.8329 2982.45 21.9984V-32.2753C2982.45 -46.1098 2971.2 -57.3247 2957.31 -57.3247Z" stroke="#D2D5DA"/>
</g>
<path d="M2490.1 9.47375C2498.2 9.47375 2504.77 2.93169 2504.77 -5.13837C2504.77 -13.2084 2498.2 -19.7505 2490.1 -19.7505C2482 -19.7505 2475.43 -13.2084 2475.43 -5.13837C2475.43 2.93169 2482 9.47375 2490.1 9.47375Z" fill="white"/>
<path d="M2490.1 9.47375C2498.2 9.47375 2504.77 2.93169 2504.77 -5.13837C2504.77 -13.2084 2498.2 -19.7505 2490.1 -19.7505C2482 -19.7505 2475.43 -13.2084 2475.43 -5.13837C2475.43 2.93169 2482 9.47375 2490.1 9.47375Z" fill="url(#paint2_linear_78_47)" fill-opacity="0.2"/>
<path d="M2490.1 9.47375C2498.2 9.47375 2504.77 2.93169 2504.77 -5.13837C2504.77 -13.2084 2498.2 -19.7505 2490.1 -19.7505C2482 -19.7505 2475.43 -13.2084 2475.43 -5.13837C2475.43 2.93169 2482 9.47375 2490.1 9.47375Z" stroke="#A9A9A9" stroke-width="8"/>
<g filter="url(#filter12_d_78_47)">
<path d="M2957.31 72.0972H2462.86C2448.98 72.0972 2437.72 83.3121 2437.72 97.1465V151.42C2437.72 165.254 2448.98 176.469 2462.86 176.469H2957.31C2971.2 176.469 2982.45 165.254 2982.45 151.42V97.1465C2982.45 83.3121 2971.2 72.0972 2957.31 72.0972Z" fill="white"/>
<path d="M2957.31 72.0972H2462.86C2448.98 72.0972 2437.72 83.3121 2437.72 97.1465V151.42C2437.72 165.254 2448.98 176.469 2462.86 176.469H2957.31C2971.2 176.469 2982.45 165.254 2982.45 151.42V97.1465C2982.45 83.3121 2971.2 72.0972 2957.31 72.0972Z" stroke="#D2D5DA"/>
</g>
<path d="M2490.1 146.201C2502.25 146.201 2512.1 136.388 2512.1 124.283C2512.1 112.178 2502.25 102.365 2490.1 102.365C2477.95 102.365 2468.1 112.178 2468.1 124.283C2468.1 136.388 2477.95 146.201 2490.1 146.201Z" fill="white"/>
<path d="M2490.1 146.201C2502.25 146.201 2512.1 136.388 2512.1 124.283C2512.1 112.178 2502.25 102.365 2490.1 102.365C2477.95 102.365 2468.1 112.178 2468.1 124.283C2468.1 136.388 2477.95 146.201 2490.1 146.201Z" fill="url(#paint3_linear_78_47)" fill-opacity="0.2"/>
<path d="M2490.1 146.201C2502.25 146.201 2512.1 136.388 2512.1 124.283C2512.1 112.178 2502.25 102.365 2490.1 102.365C2477.95 102.365 2468.1 112.178 2468.1 124.283C2468.1 136.388 2477.95 146.201 2490.1 146.201Z" stroke="#9DA3AE"/>
<g filter="url(#filter13_d_78_47)">
<path d="M2957.31 201.519H2462.86C2448.98 201.519 2437.72 212.734 2437.72 226.568V280.842C2437.72 294.676 2448.98 305.891 2462.86 305.891H2957.31C2971.2 305.891 2982.45 294.676 2982.45 280.842V226.568C2982.45 212.734 2971.2 201.519 2957.31 201.519Z" fill="white"/>
<path d="M2957.31 201.519H2462.86C2448.98 201.519 2437.72 212.734 2437.72 226.568V280.842C2437.72 294.676 2448.98 305.891 2462.86 305.891H2957.31C2971.2 305.891 2982.45 294.676 2982.45 280.842V226.568C2982.45 212.734 2971.2 201.519 2957.31 201.519Z" stroke="#D2D5DA"/>
</g>
<path d="M2490.1 275.623C2502.25 275.623 2512.1 265.81 2512.1 253.705C2512.1 241.6 2502.25 231.787 2490.1 231.787C2477.95 231.787 2468.1 241.6 2468.1 253.705C2468.1 265.81 2477.95 275.623 2490.1 275.623Z" fill="white"/>
<path d="M2490.1 275.623C2502.25 275.623 2512.1 265.81 2512.1 253.705C2512.1 241.6 2502.25 231.787 2490.1 231.787C2477.95 231.787 2468.1 241.6 2468.1 253.705C2468.1 265.81 2477.95 275.623 2490.1 275.623Z" fill="url(#paint4_linear_78_47)" fill-opacity="0.2"/>
<path d="M2490.1 275.623C2502.25 275.623 2512.1 265.81 2512.1 253.705C2512.1 241.6 2502.25 231.787 2490.1 231.787C2477.95 231.787 2468.1 241.6 2468.1 253.705C2468.1 265.81 2477.95 275.623 2490.1 275.623Z" stroke="#9DA3AE"/>
</g>
</g>
<g opacity="0.6">
<path fill-rule="evenodd" clip-rule="evenodd" d="M2951.53 1077.23C2952.01 1076.75 2952.66 1076.48 2953.34 1076.48C2954.03 1076.48 2954.68 1076.75 2955.16 1077.23L2975.72 1097.79C2976.2 1098.27 2976.47 1098.92 2976.47 1099.6C2976.47 1100.28 2976.2 1100.94 2975.72 1101.42L2955.16 1121.97C2954.92 1122.23 2954.64 1122.43 2954.32 1122.57C2954.01 1122.71 2953.67 1122.78 2953.32 1122.79C2952.98 1122.79 2952.64 1122.73 2952.32 1122.6C2952 1122.47 2951.71 1122.28 2951.46 1122.04C2951.22 1121.79 2951.03 1121.5 2950.9 1121.18C2950.77 1120.86 2950.7 1120.52 2950.71 1120.17C2950.72 1119.83 2950.79 1119.49 2950.93 1119.17C2951.07 1118.86 2951.28 1118.58 2951.53 1118.34L2970.27 1099.6L2951.53 1080.87C2951.05 1080.38 2950.77 1079.73 2950.77 1079.05C2950.77 1078.37 2951.05 1077.72 2951.53 1077.23ZM2030.1 1077.23C2030.58 1077.72 2030.85 1078.37 2030.85 1079.05C2030.85 1079.73 2030.58 1080.38 2030.1 1080.87L2011.36 1099.6L2030.1 1118.34C2030.35 1118.58 2030.55 1118.86 2030.69 1119.17C2030.84 1119.49 2030.91 1119.83 2030.91 1120.17C2030.92 1120.52 2030.86 1120.86 2030.73 1121.18C2030.6 1121.5 2030.41 1121.79 2030.16 1122.04C2029.92 1122.28 2029.63 1122.47 2029.31 1122.6C2028.99 1122.73 2028.65 1122.79 2028.3 1122.79C2027.96 1122.78 2027.61 1122.71 2027.3 1122.57C2026.98 1122.43 2026.7 1122.23 2026.47 1121.97L2005.91 1101.42C2005.43 1100.94 2005.16 1100.28 2005.16 1099.6C2005.16 1098.92 2005.43 1098.27 2005.91 1097.79L2026.47 1077.23C2026.95 1076.75 2027.6 1076.48 2028.28 1076.48C2028.96 1076.48 2029.62 1076.75 2030.1 1077.23Z" fill="#9DA3AE"/>
<g filter="url(#filter14_d_78_47)">
<path d="M2569.62 962.581H2412.01C2389.31 962.581 2370.9 980.987 2370.9 1003.69V1195.52C2370.9 1218.22 2389.31 1236.63 2412.01 1236.63H2569.62C2592.32 1236.63 2610.73 1218.22 2610.73 1195.52V1003.69C2610.73 980.987 2592.32 962.581 2569.62 962.581Z" fill="white"/>
<path d="M2569.62 962.581H2412.01C2389.31 962.581 2370.9 980.987 2370.9 1003.69V1195.52C2370.9 1218.22 2389.31 1236.63 2412.01 1236.63H2569.62C2592.32 1236.63 2610.73 1218.22 2610.73 1195.52V1003.69C2610.73 980.987 2592.32 962.581 2569.62 962.581Z" stroke="#D2D5DA"/>
</g>
<g filter="url(#filter15_d_78_47)">
<path d="M2843.71 962.581H2686.1C2663.4 962.581 2644.99 980.987 2644.99 1003.69V1195.52C2644.99 1218.22 2663.4 1236.63 2686.1 1236.63H2843.71C2866.41 1236.63 2884.82 1218.22 2884.82 1195.52V1003.69C2884.82 980.987 2866.41 962.581 2843.71 962.581Z" fill="white"/>
<path d="M2843.71 962.581H2686.1C2663.4 962.581 2644.99 980.987 2644.99 1003.69V1195.52C2644.99 1218.22 2663.4 1236.63 2686.1 1236.63H2843.71C2866.41 1236.63 2884.82 1218.22 2884.82 1195.52V1003.69C2884.82 980.987 2866.41 962.581 2843.71 962.581Z" stroke="#D2D5DA"/>
</g>
<g filter="url(#filter16_d_78_47)">
<path d="M2295.52 962.581H2137.92C2115.21 962.581 2096.81 980.987 2096.81 1003.69V1195.52C2096.81 1218.22 2115.21 1236.63 2137.92 1236.63H2295.52C2318.23 1236.63 2336.64 1218.22 2336.64 1195.52V1003.69C2336.64 980.987 2318.23 962.581 2295.52 962.581Z" fill="white"/>
<path d="M2295.52 962.581H2137.92C2115.21 962.581 2096.81 980.987 2096.81 1003.69V1195.52C2096.81 1218.22 2115.21 1236.63 2137.92 1236.63H2295.52C2318.23 1236.63 2336.64 1218.22 2336.64 1195.52V1003.69C2336.64 980.987 2318.23 962.581 2295.52 962.581Z" stroke="#D2D5DA"/>
</g>
</g>
</g>
</g>
<defs>
<filter id="filter0_d_78_47" x="2011.21" y="2653.43" width="280.831" height="315.044" filterUnits="userSpaceOnUse" color-interpolation-filters="sRGB">
<feFlood flood-opacity="0" result="BackgroundImageFix"/>
<feColorMatrix in="SourceAlpha" type="matrix" values="0 0 0 0 0 0 0 0 0 0 0 0 0 0 0 0 0 0 127 0" result="hardAlpha"/>
<feOffset dy="2"/>
<feGaussianBlur stdDeviation="10"/>
<feComposite in2="hardAlpha" operator="out"/>
<feColorMatrix type="matrix" values="0 0 0 0 0.180392 0 0 0 0 0.203922 0 0 0 0 0.25098 0 0 0 0.07 0"/>
<feBlend mode="normal" in2="BackgroundImageFix" result="effect1_dropShadow_78_47"/>
<feBlend mode="normal" in="SourceGraphic" in2="effect1_dropShadow_78_47" result="shape"/>
</filter>
<filter id="filter1_d_78_47" x="2278.45" y="2653.43" width="280.831" height="315.044" filterUnits="userSpaceOnUse" color-interpolation-filters="sRGB">
<feFlood flood-opacity="0" result="BackgroundImageFix"/>
<feColorMatrix in="SourceAlpha" type="matrix" values="0 0 0 0 0 0 0 0 0 0 0 0 0 0 0 0 0 0 127 0" result="hardAlpha"/>
<feOffset dy="2"/>
<feGaussianBlur stdDeviation="10"/>
<feComposite in2="hardAlpha" operator="out"/>
<feColorMatrix type="matrix" values="0 0 0 0 0.180392 0 0 0 0 0.203922 0 0 0 0 0.25098 0 0 0 0.07 0"/>
<feBlend mode="normal" in2="BackgroundImageFix" result="effect1_dropShadow_78_47"/>
<feBlend mode="normal" in="SourceGraphic" in2="effect1_dropShadow_78_47" result="shape"/>
</filter>
<filter id="filter2_d_78_47" x="1709.71" y="2653.43" width="1034.58" height="657.6" filterUnits="userSpaceOnUse" color-interpolation-filters="sRGB">
<feFlood flood-opacity="0" result="BackgroundImageFix"/>
<feColorMatrix in="SourceAlpha" type="matrix" values="0 0 0 0 0 0 0 0 0 0 0 0 0 0 0 0 0 0 127 0" result="hardAlpha"/>
<feOffset dy="2"/>
<feGaussianBlur stdDeviation="10"/>
<feComposite in2="hardAlpha" operator="out"/>
<feColorMatrix type="matrix" values="0 0 0 0 0.180392 0 0 0 0 0.203922 0 0 0 0 0.25098 0 0 0 0.07 0"/>
<feBlend mode="normal" in2="BackgroundImageFix" result="effect1_dropShadow_78_47"/>
<feBlend mode="normal" in="SourceGraphic" in2="effect1_dropShadow_78_47" result="shape"/>
</filter>
<filter id="filter3_d_78_47" x="3770.47" y="1261.01" width="1034.58" height="178.022" filterUnits="userSpaceOnUse" color-interpolation-filters="sRGB">
<feFlood flood-opacity="0" result="BackgroundImageFix"/>
<feColorMatrix in="SourceAlpha" type="matrix" values="0 0 0 0 0 0 0 0 0 0 0 0 0 0 0 0 0 0 127 0" result="hardAlpha"/>
<feOffset dy="2"/>
<feGaussianBlur stdDeviation="10"/>
<feComposite in2="hardAlpha" operator="out"/>
<feColorMatrix type="matrix" values="0 0 0 0 0.180392 0 0 0 0 0.203922 0 0 0 0 0.25098 0 0 0 0.07 0"/>
<feBlend mode="normal" in2="BackgroundImageFix" result="effect1_dropShadow_78_47"/>
<feBlend mode="normal" in="SourceGraphic" in2="effect1_dropShadow_78_47" result="shape"/>
</filter>
<filter id="filter4_d_78_47" x="3770.47" y="1425.43" width="1034.58" height="465.769" filterUnits="userSpaceOnUse" color-interpolation-filters="sRGB">
<feFlood flood-opacity="0" result="BackgroundImageFix"/>
<feColorMatrix in="SourceAlpha" type="matrix" values="0 0 0 0 0 0 0 0 0 0 0 0 0 0 0 0 0 0 127 0" result="hardAlpha"/>
<feOffset dy="2"/>
<feGaussianBlur stdDeviation="10"/>
<feComposite in2="hardAlpha" operator="out"/>
<feColorMatrix type="matrix" values="0 0 0 0 0.180392 0 0 0 0 0.203922 0 0 0 0 0.25098 0 0 0 0.07 0"/>
<feBlend mode="normal" in2="BackgroundImageFix" result="effect1_dropShadow_78_47"/>
<feBlend mode="normal" in="SourceGraphic" in2="effect1_dropShadow_78_47" result="shape"/>
</filter>
<filter id="filter5_d_78_47" x="-253.823" y="1396.52" width="1057.14" height="504.795" filterUnits="userSpaceOnUse" color-interpolation-filters="sRGB">
<feFlood flood-opacity="0" result="BackgroundImageFix"/>
<feColorMatrix in="SourceAlpha" type="matrix" values="0 0 0 0 0 0 0 0 0 0 0 0 0 0 0 0 0 0 127 0" result="hardAlpha"/>
<feOffset dy="2"/>
<feGaussianBlur stdDeviation="10"/>
<feComposite in2="hardAlpha" operator="out"/>
<feColorMatrix type="matrix" values="0 0 0 0 0.180392 0 0 0 0 0.203922 0 0 0 0 0.25098 0 0 0 0.07 0"/>
<feBlend mode="normal" in2="BackgroundImageFix" result="effect1_dropShadow_78_47"/>
<feBlend mode="normal" in="SourceGraphic" in2="effect1_dropShadow_78_47" result="shape"/>
</filter>
<filter id="filter6_d_78_47" x="2143.18" y="1885.91" width="945.056" height="650.576" filterUnits="userSpaceOnUse" color-interpolation-filters="sRGB">
<feFlood flood-opacity="0" result="BackgroundImageFix"/>
<feColorMatrix in="SourceAlpha" type="matrix" values="0 0 0 0 0 0 0 0 0 0 0 0 0 0 0 0 0 0 127 0" result="hardAlpha"/>
<feOffset dy="2"/>
<feGaussianBlur stdDeviation="10"/>
<feComposite in2="hardAlpha" operator="out"/>
<feColorMatrix type="matrix" values="0 0 0 0 0.180392 0 0 0 0 0.203922 0 0 0 0 0.25098 0 0 0 0.07 0"/>
<feBlend mode="normal" in2="BackgroundImageFix" result="effect1_dropShadow_78_47"/>
<feBlend mode="normal" in="SourceGraphic" in2="effect1_dropShadow_78_47" result="shape"/>
</filter>
<filter id="filter7_d_78_47" x="1224.54" y="195.258" width="1088.62" height="754.748" filterUnits="userSpaceOnUse" color-interpolation-filters="sRGB">
<feFlood flood-opacity="0" result="BackgroundImageFix"/>
<feColorMatrix in="SourceAlpha" type="matrix" values="0 0 0 0 0 0 0 0 0 0 0 0 0 0 0 0 0 0 127 0" result="hardAlpha"/>
<feOffset dy="2"/>
<feGaussianBlur stdDeviation="10"/>
<feComposite in2="hardAlpha" operator="out"/>
<feColorMatrix type="matrix" values="0 0 0 0 0.180392 0 0 0 0 0.203922 0 0 0 0 0.25098 0 0 0 0.07 0"/>
<feBlend mode="normal" in2="BackgroundImageFix" result="effect1_dropShadow_78_47"/>
<feBlend mode="normal" in="SourceGraphic" in2="effect1_dropShadow_78_47" result="shape"/>
</filter>
<filter id="filter8_d_78_47" x="1049.49" y="1357.21" width="650.34" height="165.24" filterUnits="userSpaceOnUse" color-interpolation-filters="sRGB">
<feFlood flood-opacity="0" result="BackgroundImageFix"/>
<feColorMatrix in="SourceAlpha" type="matrix" values="0 0 0 0 0 0 0 0 0 0 0 0 0 0 0 0 0 0 127 0" result="hardAlpha"/>
<feOffset dy="2"/>
<feGaussianBlur stdDeviation="10"/>
<feComposite in2="hardAlpha" operator="out"/>
<feColorMatrix type="matrix" values="0 0 0 0 0.180392 0 0 0 0 0.203922 0 0 0 0 0.25098 0 0 0 0.07 0"/>
<feBlend mode="normal" in2="BackgroundImageFix" result="effect1_dropShadow_78_47"/>
<feBlend mode="normal" in="SourceGraphic" in2="effect1_dropShadow_78_47" result="shape"/>
</filter>
<filter id="filter9_d_78_47" x="990.03" y="1264.72" width="649.498" height="155.417" filterUnits="userSpaceOnUse" color-interpolation-filters="sRGB">
<feFlood flood-opacity="0" result="BackgroundImageFix"/>
<feColorMatrix in="SourceAlpha" type="matrix" values="0 0 0 0 0 0 0 0 0 0 0 0 0 0 0 0 0 0 127 0" result="hardAlpha"/>
<feOffset dy="2"/>
<feGaussianBlur stdDeviation="10"/>
<feComposite in2="hardAlpha" operator="out"/>
<feColorMatrix type="matrix" values="0 0 0 0 0.180392 0 0 0 0 0.203922 0 0 0 0 0.25098 0 0 0 0.07 0"/>
<feBlend mode="normal" in2="BackgroundImageFix" result="effect1_dropShadow_78_47"/>
<feBlend mode="normal" in="SourceGraphic" in2="effect1_dropShadow_78_47" result="shape"/>
</filter>
<filter id="filter10_d_78_47" x="1063.35" y="1172.58" width="649.502" height="155.417" filterUnits="userSpaceOnUse" color-interpolation-filters="sRGB">
<feFlood flood-opacity="0" result="BackgroundImageFix"/>
<feColorMatrix in="SourceAlpha" type="matrix" values="0 0 0 0 0 0 0 0 0 0 0 0 0 0 0 0 0 0 127 0" result="hardAlpha"/>
<feOffset dy="2"/>
<feGaussianBlur stdDeviation="10"/>
<feComposite in2="hardAlpha" operator="out"/>
<feColorMatrix type="matrix" values="0 0 0 0 0.180392 0 0 0 0 0.203922 0 0 0 0 0.25098 0 0 0 0.07 0"/>
<feBlend mode="normal" in2="BackgroundImageFix" result="effect1_dropShadow_78_47"/>
<feBlend mode="normal" in="SourceGraphic" in2="effect1_dropShadow_78_47" result="shape"/>
</filter>
<filter id="filter11_d_78_47" x="2429.22" y="-63.8247" width="561.734" height="121.373" filterUnits="userSpaceOnUse" color-interpolation-filters="sRGB">
<feFlood flood-opacity="0" result="BackgroundImageFix"/>
<feColorMatrix in="SourceAlpha" type="matrix" values="0 0 0 0 0 0 0 0 0 0 0 0 0 0 0 0 0 0 127 0" result="hardAlpha"/>
<feOffset dy="2"/>
<feGaussianBlur stdDeviation="4"/>
<feComposite in2="hardAlpha" operator="out"/>
<feColorMatrix type="matrix" values="0 0 0 0 0.180392 0 0 0 0 0.203922 0 0 0 0 0.25098 0 0 0 0.03 0"/>
<feBlend mode="normal" in2="BackgroundImageFix" result="effect1_dropShadow_78_47"/>
<feBlend mode="normal" in="SourceGraphic" in2="effect1_dropShadow_78_47" result="shape"/>
</filter>
<filter id="filter12_d_78_47" x="2429.22" y="65.5972" width="561.734" height="121.372" filterUnits="userSpaceOnUse" color-interpolation-filters="sRGB">
<feFlood flood-opacity="0" result="BackgroundImageFix"/>
<feColorMatrix in="SourceAlpha" type="matrix" values="0 0 0 0 0 0 0 0 0 0 0 0 0 0 0 0 0 0 127 0" result="hardAlpha"/>
<feOffset dy="2"/>
<feGaussianBlur stdDeviation="4"/>
<feComposite in2="hardAlpha" operator="out"/>
<feColorMatrix type="matrix" values="0 0 0 0 0.180392 0 0 0 0 0.203922 0 0 0 0 0.25098 0 0 0 0.03 0"/>
<feBlend mode="normal" in2="BackgroundImageFix" result="effect1_dropShadow_78_47"/>
<feBlend mode="normal" in="SourceGraphic" in2="effect1_dropShadow_78_47" result="shape"/>
</filter>
<filter id="filter13_d_78_47" x="2429.22" y="195.019" width="561.734" height="121.373" filterUnits="userSpaceOnUse" color-interpolation-filters="sRGB">
<feFlood flood-opacity="0" result="BackgroundImageFix"/>
<feColorMatrix in="SourceAlpha" type="matrix" values="0 0 0 0 0 0 0 0 0 0 0 0 0 0 0 0 0 0 127 0" result="hardAlpha"/>
<feOffset dy="2"/>
<feGaussianBlur stdDeviation="4"/>
<feComposite in2="hardAlpha" operator="out"/>
<feColorMatrix type="matrix" values="0 0 0 0 0.180392 0 0 0 0 0.203922 0 0 0 0 0.25098 0 0 0 0.03 0"/>
<feBlend mode="normal" in2="BackgroundImageFix" result="effect1_dropShadow_78_47"/>
<feBlend mode="normal" in="SourceGraphic" in2="effect1_dropShadow_78_47" result="shape"/>
</filter>
<filter id="filter14_d_78_47" x="2362.4" y="956.081" width="256.831" height="291.044" filterUnits="userSpaceOnUse" color-interpolation-filters="sRGB">
<feFlood flood-opacity="0" result="BackgroundImageFix"/>
<feColorMatrix in="SourceAlpha" type="matrix" values="0 0 0 0 0 0 0 0 0 0 0 0 0 0 0 0 0 0 127 0" result="hardAlpha"/>
<feOffset dy="2"/>
<feGaussianBlur stdDeviation="4"/>
<feComposite in2="hardAlpha" operator="out"/>
<feColorMatrix type="matrix" values="0 0 0 0 0.180392 0 0 0 0 0.203922 0 0 0 0 0.25098 0 0 0 0.03 0"/>
<feBlend mode="normal" in2="BackgroundImageFix" result="effect1_dropShadow_78_47"/>
<feBlend mode="normal" in="SourceGraphic" in2="effect1_dropShadow_78_47" result="shape"/>
</filter>
<filter id="filter15_d_78_47" x="2636.49" y="956.081" width="256.831" height="291.044" filterUnits="userSpaceOnUse" color-interpolation-filters="sRGB">
<feFlood flood-opacity="0" result="BackgroundImageFix"/>
<feColorMatrix in="SourceAlpha" type="matrix" values="0 0 0 0 0 0 0 0 0 0 0 0 0 0 0 0 0 0 127 0" result="hardAlpha"/>
<feOffset dy="2"/>
<feGaussianBlur stdDeviation="4"/>
<feComposite in2="hardAlpha" operator="out"/>
<feColorMatrix type="matrix" values="0 0 0 0 0.180392 0 0 0 0 0.203922 0 0 0 0 0.25098 0 0 0 0.03 0"/>
<feBlend mode="normal" in2="BackgroundImageFix" result="effect1_dropShadow_78_47"/>
<feBlend mode="normal" in="SourceGraphic" in2="effect1_dropShadow_78_47" result="shape"/>
</filter>
<filter id="filter16_d_78_47" x="2088.31" y="956.081" width="256.831" height="291.044" filterUnits="userSpaceOnUse" color-interpolation-filters="sRGB">
<feFlood flood-opacity="0" result="BackgroundImageFix"/>
<feColorMatrix in="SourceAlpha" type="matrix" values="0 0 0 0 0 0 0 0 0 0 0 0 0 0 0 0 0 0 127 0" result="hardAlpha"/>
<feOffset dy="2"/>
<feGaussianBlur stdDeviation="4"/>
<feComposite in2="hardAlpha" operator="out"/>
<feColorMatrix type="matrix" values="0 0 0 0 0.180392 0 0 0 0 0.203922 0 0 0 0 0.25098 0 0 0 0.03 0"/>
<feBlend mode="normal" in2="BackgroundImageFix" result="effect1_dropShadow_78_47"/>
<feBlend mode="normal" in="SourceGraphic" in2="effect1_dropShadow_78_47" result="shape"/>
</filter>
<linearGradient id="paint0_linear_78_47" x1="3039" y1="2339.91" x2="3710.52" y2="2339.91" gradientUnits="userSpaceOnUse">
<stop stop-color="#CCCCCC" stop-opacity="0"/>
<stop offset="0.54574" stop-color="#E8E8E8" stop-opacity="0.598958"/>
<stop offset="1" stop-color="#C4C4C4" stop-opacity="0"/>
</linearGradient>
<linearGradient id="paint1_linear_78_47" x1="3039" y1="3025.02" x2="3710.52" y2="3025.02" gradientUnits="userSpaceOnUse">
<stop stop-color="#CCCCCC" stop-opacity="0"/>
<stop offset="0.54574" stop-color="#E8E8E8" stop-opacity="0.598958"/>
<stop offset="1" stop-color="#C4C4C4" stop-opacity="0"/>
</linearGradient>
<linearGradient id="paint2_linear_78_47" x1="2490.1" y1="-28.1003" x2="2490.1" y2="17.8236" gradientUnits="userSpaceOnUse">
<stop stop-color="#2E3440" stop-opacity="0"/>
<stop offset="1" stop-color="#2E3440" stop-opacity="0.05"/>
</linearGradient>
<linearGradient id="paint3_linear_78_47" x1="2490.1" y1="101.321" x2="2490.1" y2="147.245" gradientUnits="userSpaceOnUse">
<stop stop-color="#2E3440" stop-opacity="0"/>
<stop offset="1" stop-color="#2E3440" stop-opacity="0.05"/>
</linearGradient>
<linearGradient id="paint4_linear_78_47" x1="2490.1" y1="230.743" x2="2490.1" y2="276.667" gradientUnits="userSpaceOnUse">
<stop stop-color="#2E3440" stop-opacity="0"/>
<stop offset="1" stop-color="#2E3440" stop-opacity="0.05"/>
</linearGradient>
<clipPath id="clip0_78_47">
<rect width="4454" height="3083" fill="white"/>
</clipPath>
</defs>
</svg>
