<svg width="3654" height="454" viewBox="0 0 3654 454" fill="none" xmlns="http://www.w3.org/2000/svg">
<path d="M0.400568 228.142V201.509C20.4053 201.509 34.3731 197.425 42.304 189.257C50.2349 180.971 54.2003 167.299 54.2003 148.241V97.2827C54.2003 79.1719 56.2126 63.9612 60.2372 51.6506C64.3802 39.2216 70.6539 29.2784 79.0582 21.821C87.4626 14.3636 98.116 8.97774 111.018 5.66334C123.921 2.34895 139.132 0.691751 156.651 0.691751V42.7727C142.92 42.7727 132.207 44.785 124.513 48.8097C116.819 52.8343 111.433 59.108 108.355 67.6307C105.396 76.035 103.916 86.8068 103.916 99.946V164.577C103.916 173.691 102.555 182.155 99.8324 189.967C97.1099 197.661 92.0791 204.349 84.7401 210.031C77.401 215.713 66.9252 220.152 53.3125 223.348C39.6998 226.544 22.0625 228.142 0.400568 228.142ZM156.651 453.639C139.132 453.639 123.921 451.982 111.018 448.668C98.116 445.353 87.4626 439.967 79.0582 432.51C70.6539 425.053 64.3802 415.109 60.2372 402.68C56.2126 390.37 54.2003 375.159 54.2003 357.048V305.912C54.2003 286.973 50.2349 273.36 42.304 265.074C34.3731 256.788 20.4053 252.645 0.400568 252.645V226.189C22.0625 226.189 39.6998 227.787 53.3125 230.983C66.9252 234.061 77.401 238.5 84.7401 244.3C92.0791 249.982 97.1099 256.729 99.8324 264.541C102.555 272.235 103.916 280.64 103.916 289.754V354.385C103.916 367.406 105.396 378.118 108.355 386.523C111.433 395.045 116.819 401.319 124.513 405.344C132.207 409.487 142.92 411.558 156.651 411.558V453.639ZM0.400568 252.645V201.509H49.5838V252.645H0.400568ZM189.365 228.142V201.509C209.37 201.509 223.338 197.425 231.269 189.257C239.2 180.971 243.165 167.299 243.165 148.241V97.2827C243.165 79.1719 245.177 63.9612 249.202 51.6506C253.345 39.2216 259.619 29.2784 268.023 21.821C276.427 14.3636 287.081 8.97774 299.983 5.66334C312.886 2.34895 328.096 0.691751 345.615 0.691751V42.7727C331.884 42.7727 321.172 44.785 313.478 48.8097C305.783 52.8343 300.398 59.108 297.32 67.6307C294.361 76.035 292.881 86.8068 292.881 99.946V164.577C292.881 173.691 291.52 182.155 288.797 189.967C286.075 197.661 281.044 204.349 273.705 210.031C266.366 215.713 255.89 220.152 242.277 223.348C228.665 226.544 211.027 228.142 189.365 228.142ZM345.615 453.639C328.096 453.639 312.886 451.982 299.983 448.668C287.081 445.353 276.427 439.967 268.023 432.51C259.619 425.053 253.345 415.109 249.202 402.68C245.177 390.37 243.165 375.159 243.165 357.048V305.912C243.165 286.973 239.2 273.36 231.269 265.074C223.338 256.788 209.37 252.645 189.365 252.645V226.189C211.027 226.189 228.665 227.787 242.277 230.983C255.89 234.061 266.366 238.5 273.705 244.3C281.044 249.982 286.075 256.729 288.797 264.541C291.52 272.235 292.881 280.64 292.881 289.754V354.385C292.881 367.406 294.361 378.118 297.32 386.523C300.398 395.045 305.783 401.319 313.478 405.344C321.172 409.487 331.884 411.558 345.615 411.558V453.639ZM189.365 252.645V201.509H238.549V252.645H189.365ZM578.437 378H471.903L591.931 14.3636H726.874L846.903 378H740.369L660.823 114.506H657.982L578.437 378ZM558.55 234.534H758.835V308.398H558.55V234.534ZM1100.99 134.392C1099.45 128.118 1097.02 122.614 1093.71 117.879C1090.39 113.026 1086.25 108.942 1081.28 105.628C1076.42 102.195 1070.74 99.6501 1064.23 97.9929C1057.84 96.2173 1050.8 95.3295 1043.1 95.3295C1026.53 95.3295 1012.39 99.295 1000.67 107.226C989.067 115.157 980.189 126.58 974.033 141.494C967.996 156.409 964.978 174.402 964.978 195.472C964.978 216.778 967.878 235.008 973.678 250.159C979.478 265.311 988.12 276.911 999.602 284.96C1011.08 293.009 1025.35 297.034 1042.39 297.034C1057.43 297.034 1069.91 294.844 1079.86 290.464C1089.92 286.085 1097.44 279.87 1102.41 271.821C1107.38 263.772 1109.86 254.302 1109.86 243.412L1126.91 245.188H1043.81V174.875H1205.03V225.301C1205.03 258.445 1197.99 286.795 1183.91 310.351C1169.94 333.788 1150.64 351.781 1126.02 364.328C1101.52 376.757 1073.41 382.972 1041.68 382.972C1006.29 382.972 975.217 375.455 948.465 360.422C921.713 345.389 900.821 323.964 885.788 296.146C870.873 268.329 863.415 235.244 863.415 196.892C863.415 166.826 867.973 140.192 877.087 116.991C886.32 93.7907 899.104 74.2003 915.44 58.2202C931.775 42.1217 950.655 29.9886 972.08 21.821C993.505 13.535 1016.47 9.39203 1040.97 9.39203C1062.52 9.39203 1082.52 12.4697 1100.99 18.625C1119.57 24.6619 1135.97 33.303 1150.17 44.5483C1164.49 55.6752 1176.03 68.8736 1184.79 84.1435C1193.55 99.4133 1198.88 116.163 1200.77 134.392H1100.99ZM1565.7 14.3636V378H1483.31L1351.92 186.949H1349.79V378H1251.07V14.3636H1334.87L1464.13 204.705H1466.98V14.3636H1565.7ZM1964.67 196.182C1964.67 236.665 1956.8 270.815 1941.05 298.632C1925.31 326.331 1904.06 347.342 1877.31 361.665C1850.56 375.869 1820.73 382.972 1787.82 382.972C1754.68 382.972 1724.73 375.81 1697.98 361.487C1671.34 347.046 1650.15 325.976 1634.41 298.277C1618.79 270.46 1610.97 236.428 1610.97 196.182C1610.97 155.699 1618.79 121.608 1634.41 93.9091C1650.15 66.0918 1671.34 45.0809 1697.98 30.8764C1724.73 16.5535 1754.68 9.39203 1787.82 9.39203C1820.73 9.39203 1850.56 16.5535 1877.31 30.8764C1904.06 45.0809 1925.31 66.0918 1941.05 93.9091C1956.8 121.608 1964.67 155.699 1964.67 196.182ZM1863.1 196.182C1863.1 174.402 1860.2 156.054 1854.4 141.139C1848.72 126.106 1840.26 114.742 1829.01 107.048C1817.89 99.2358 1804.16 95.3295 1787.82 95.3295C1771.49 95.3295 1757.7 99.2358 1746.45 107.048C1735.32 114.742 1726.86 126.106 1721.06 141.139C1715.38 156.054 1712.54 174.402 1712.54 196.182C1712.54 217.962 1715.38 236.369 1721.06 251.402C1726.86 266.317 1735.32 277.68 1746.45 285.493C1757.7 293.187 1771.49 297.034 1787.82 297.034C1804.16 297.034 1817.89 293.187 1829.01 285.493C1840.26 277.68 1848.72 266.317 1854.4 251.402C1860.2 236.369 1863.1 217.962 1863.1 196.182ZM2206.37 128C2205.42 116.163 2200.98 106.93 2193.05 100.301C2185.24 93.6723 2173.34 90.3579 2157.36 90.3579C2147.18 90.3579 2138.84 91.6008 2132.33 94.0866C2125.93 96.4541 2121.2 99.7093 2118.12 103.852C2115.04 107.995 2113.45 112.73 2113.33 118.057C2113.09 122.437 2113.86 126.402 2115.63 129.953C2117.53 133.386 2120.49 136.523 2124.51 139.364C2128.54 142.086 2133.69 144.572 2139.96 146.821C2146.23 149.07 2153.69 151.082 2162.33 152.858L2192.16 159.25C2212.29 163.511 2229.51 169.134 2243.83 176.118C2258.15 183.102 2269.87 191.329 2278.99 200.798C2288.1 210.15 2294.79 220.685 2299.05 232.403C2303.43 244.122 2305.68 256.906 2305.8 270.756C2305.68 294.667 2299.7 314.908 2287.87 331.48C2276.03 348.052 2259.1 360.659 2237.08 369.3C2215.19 377.941 2188.85 382.261 2158.07 382.261C2126.47 382.261 2098.89 377.586 2075.33 368.234C2051.89 358.883 2033.66 344.501 2020.64 325.088C2007.74 305.557 2001.23 280.58 2001.11 250.159H2094.86C2095.45 261.286 2098.23 270.637 2103.21 278.213C2108.18 285.789 2115.16 291.53 2124.16 295.436C2133.27 299.342 2144.1 301.295 2156.65 301.295C2167.19 301.295 2176 299.993 2183.11 297.389C2190.21 294.785 2195.59 291.175 2199.26 286.558C2202.93 281.942 2204.83 276.674 2204.95 270.756C2204.83 265.192 2202.99 260.339 2199.44 256.196C2196.01 251.935 2190.33 248.147 2182.4 244.832C2174.47 241.4 2163.75 238.204 2150.26 235.244L2114.04 227.432C2081.84 220.448 2056.45 208.788 2037.87 192.453C2019.4 176 2010.23 153.568 2010.34 125.159C2010.23 102.077 2016.38 81.8944 2028.81 64.6122C2041.36 47.2116 2058.7 33.6581 2080.83 23.9517C2103.09 14.2453 2128.6 9.39203 2157.36 9.39203C2186.72 9.39203 2212.11 14.3044 2233.53 24.1293C2254.96 33.9541 2271.47 47.8035 2283.07 65.6776C2294.79 83.4332 2300.71 104.207 2300.83 128H2206.37ZM2333.41 93.9091V14.3636H2649.46V93.9091H2540.08V378H2442.78V93.9091H2333.41ZM2785.33 14.3636V378H2686.61V14.3636H2785.33ZM3171.61 150.727H3071.47C3070.76 142.441 3068.86 134.925 3065.79 128.178C3062.83 121.43 3058.68 115.63 3053.36 110.777C3048.15 105.805 3041.82 102.018 3034.36 99.4133C3026.9 96.6908 3018.44 95.3295 3008.97 95.3295C2992.4 95.3295 2978.37 99.3542 2966.89 107.403C2955.52 115.453 2946.88 126.994 2940.96 142.027C2935.16 157.06 2932.26 175.112 2932.26 196.182C2932.26 218.436 2935.22 237.079 2941.14 252.112C2947.18 267.027 2955.88 278.272 2967.24 285.848C2978.61 293.305 2992.28 297.034 3008.26 297.034C3017.37 297.034 3025.54 295.91 3032.76 293.661C3039.98 291.293 3046.25 287.92 3051.58 283.54C3056.91 279.16 3061.23 273.893 3064.54 267.737C3067.98 261.464 3070.28 254.42 3071.47 246.608L3171.61 247.318C3170.43 262.706 3166.11 278.391 3158.65 294.371C3151.19 310.232 3140.6 324.911 3126.87 338.405C3113.25 351.781 3096.38 362.553 3076.26 370.72C3056.14 378.888 3032.76 382.972 3006.13 382.972C2972.75 382.972 2942.8 375.81 2916.28 361.487C2889.89 347.164 2868.99 326.094 2853.61 298.277C2838.34 270.46 2830.7 236.428 2830.7 196.182C2830.7 155.699 2838.51 121.608 2854.14 93.9091C2869.76 66.0918 2890.83 45.0809 2917.35 30.8764C2943.86 16.5535 2973.46 9.39203 3006.13 9.39203C3029.09 9.39203 3050.22 12.5289 3069.51 18.8025C3088.81 25.0762 3105.74 34.25 3120.3 46.3238C3134.86 58.2793 3146.57 73.0166 3155.45 90.5355C3164.33 108.054 3169.72 128.118 3171.61 150.727ZM3464.09 226.189V252.645C3444.09 252.645 3430.12 256.788 3422.19 265.074C3414.26 273.36 3410.29 286.973 3410.29 305.912V357.048C3410.29 375.159 3408.22 390.37 3404.08 402.68C3400.05 415.109 3393.84 425.053 3385.43 432.51C3377.03 439.967 3366.37 445.353 3353.47 448.668C3340.57 451.982 3325.36 453.639 3307.84 453.639V411.558C3321.57 411.558 3332.28 409.487 3339.98 405.344C3347.67 401.319 3353 395.045 3355.96 386.523C3359.04 378.118 3360.57 367.406 3360.57 354.385V289.754C3360.57 280.64 3361.94 272.235 3364.66 264.541C3367.38 256.729 3372.41 249.982 3379.75 244.3C3387.09 238.5 3397.57 234.061 3411.18 230.983C3424.79 227.787 3442.43 226.189 3464.09 226.189ZM3307.84 0.691751C3325.36 0.691751 3340.57 2.34895 3353.47 5.66334C3366.37 8.97774 3377.03 14.3636 3385.43 21.821C3393.84 29.2784 3400.05 39.2216 3404.08 51.6506C3408.22 63.9612 3410.29 79.1719 3410.29 97.2827V148.241C3410.29 167.299 3414.26 180.971 3422.19 189.257C3430.12 197.425 3444.09 201.509 3464.09 201.509V228.142C3442.43 228.142 3424.79 226.544 3411.18 223.348C3397.57 220.152 3387.09 215.713 3379.75 210.031C3372.41 204.349 3367.38 197.661 3364.66 189.967C3361.94 182.155 3360.57 173.691 3360.57 164.577V99.946C3360.57 86.8068 3359.04 76.035 3355.96 67.6307C3353 59.108 3347.67 52.8343 3339.98 48.8097C3332.28 44.785 3321.57 42.7727 3307.84 42.7727V0.691751ZM3464.09 201.509V252.645H3414.91V201.509H3464.09ZM3653.06 226.189V252.645C3633.05 252.645 3619.08 256.788 3611.15 265.074C3603.22 273.36 3599.26 286.973 3599.26 305.912V357.048C3599.26 375.159 3597.18 390.37 3593.04 402.68C3589.02 415.109 3582.8 425.053 3574.4 432.51C3565.99 439.967 3555.34 445.353 3542.44 448.668C3529.53 451.982 3514.32 453.639 3496.81 453.639V411.558C3510.54 411.558 3521.25 409.487 3528.94 405.344C3536.64 401.319 3541.96 395.045 3544.92 386.523C3548 378.118 3549.54 367.406 3549.54 354.385V289.754C3549.54 280.64 3550.9 272.235 3553.62 264.541C3556.35 256.729 3561.38 249.982 3568.72 244.3C3576.05 238.5 3586.53 234.061 3600.14 230.983C3613.76 227.787 3631.39 226.189 3653.06 226.189ZM3496.81 0.691751C3514.32 0.691751 3529.53 2.34895 3542.44 5.66334C3555.34 8.97774 3565.99 14.3636 3574.4 21.821C3582.8 29.2784 3589.02 39.2216 3593.04 51.6506C3597.18 63.9612 3599.26 79.1719 3599.26 97.2827V148.241C3599.26 167.299 3603.22 180.971 3611.15 189.257C3619.08 197.425 3633.05 201.509 3653.06 201.509V228.142C3631.39 228.142 3613.76 226.544 3600.14 223.348C3586.53 220.152 3576.05 215.713 3568.72 210.031C3561.38 204.349 3556.35 197.661 3553.62 189.967C3550.9 182.155 3549.54 173.691 3549.54 164.577V99.946C3549.54 86.8068 3548 76.035 3544.92 67.6307C3541.96 59.108 3536.64 52.8343 3528.94 48.8097C3521.25 44.785 3510.54 42.7727 3496.81 42.7727V0.691751ZM3653.06 201.509V252.645H3603.87V201.509H3653.06Z" class="[&::selection]:text-base-content relative col-start-1 row-start-1 bg-[linear-gradient(90deg,theme(colors.error)_0%,theme(colors.secondary)_9%,theme(colors.secondary)_42%,theme(colors.primary)_47%,theme(colors.accent)_100%)] bg-clip-text [-webkit-text-fill-color:transparent] [&::selection]:bg-blue-700/20 [@supports(color:oklch(0%_0_0))]:bg-[linear-gradient(90deg,oklch(var(--s))_4%,color-mix(in_oklch,oklch(var(--s)),oklch(var(--er)))_22%,oklch(var(--p))_45%,color-mix(in_oklch,oklch(var(--p)),oklch(var(--a)))_67%,oklch(var(--a))_100.2%)]"/>
</svg>
