<svg width="2793" height="385" viewBox="0 0 2793 385" fill="none" xmlns="http://www.w3.org/2000/svg">
<path d="M214.545 321.588V382.118H0V321.588H214.545ZM429.206 321.588V382.118H214.661V321.588H429.206ZM531.958 321.588H439.214L543.706 5.35297H661.179L765.667 321.588H672.927L603.678 92.4412H601.207L531.958 321.588ZM514.647 196.823H689V261.059H514.647V196.823ZM986.859 109.735C985.521 104.279 983.408 99.4926 980.524 95.3749C977.636 91.1544 974.032 87.6029 969.702 84.7204C965.48 81.7355 960.534 79.522 954.866 78.0807C949.298 76.5367 943.168 75.7649 936.471 75.7649C922.044 75.7649 909.729 79.2131 899.527 86.1105C889.43 93.0074 881.699 102.941 876.34 115.912C871.085 128.882 868.46 144.529 868.46 162.853C868.46 181.383 870.985 197.236 876.032 210.412C881.083 223.588 888.605 233.676 898.602 240.677C908.596 247.676 921.014 251.176 935.85 251.176C948.94 251.176 959.813 249.272 968.468 245.463C977.224 241.655 983.771 236.25 988.096 229.25C992.426 222.25 994.589 214.015 994.589 204.544L1009.43 206.088H937.088V144.941H1077.44V188.794C1077.44 217.618 1071.31 242.272 1059.05 262.758C1046.89 283.14 1030.09 298.787 1008.65 309.699C987.326 320.508 962.85 325.912 935.233 325.912C904.424 325.912 877.374 319.375 854.082 306.301C830.795 293.228 812.609 274.596 799.519 250.404C786.538 226.213 780.045 197.441 780.045 164.088C780.045 137.941 784.012 114.779 791.947 94.6031C799.986 74.4264 811.113 57.3899 825.332 43.4927C839.555 29.4927 855.991 18.9412 874.64 11.8382C893.293 4.63234 913.284 1.02942 934.617 1.02942C953.37 1.02942 970.785 3.70589 986.859 9.05884C1003.04 14.3088 1017.31 21.8235 1029.68 31.6029C1042.15 41.2794 1052.19 52.7573 1059.82 66.0366C1067.44 79.3164 1072.08 93.8825 1073.73 109.735H986.859ZM1391.41 5.35297V321.588H1319.69L1205.31 155.441H1203.45V321.588H1117.51V5.35297H1190.47L1303 170.882H1305.47V5.35297H1391.41ZM1738.73 163.471C1738.73 198.676 1731.88 228.375 1718.18 252.566C1704.47 276.654 1685.97 294.926 1662.68 307.382C1639.4 319.735 1613.43 325.912 1584.78 325.912C1555.93 325.912 1529.86 319.684 1506.57 307.228C1483.38 294.669 1464.94 276.346 1451.23 252.257C1437.63 228.066 1430.83 198.471 1430.83 163.471C1430.83 128.265 1437.63 98.6175 1451.23 74.5292C1464.94 50.3381 1483.38 32.0662 1506.57 19.7132C1529.86 7.25736 1555.93 1.02942 1584.78 1.02942C1613.43 1.02942 1639.4 7.25736 1662.68 19.7132C1685.97 32.0662 1704.47 50.3381 1718.18 74.5292C1731.88 98.6175 1738.73 128.265 1738.73 163.471ZM1650.32 163.471C1650.32 144.529 1647.79 128.574 1642.75 115.603C1637.8 102.53 1630.43 92.6469 1620.64 85.956C1610.95 79.1619 1599 75.7649 1584.78 75.7649C1570.56 75.7649 1558.55 79.1619 1548.76 85.956C1539.08 92.6469 1531.71 102.53 1526.66 115.603C1521.71 128.574 1519.24 144.529 1519.24 163.471C1519.24 182.412 1521.71 198.419 1526.66 211.493C1531.71 224.463 1539.08 234.345 1548.76 241.14C1558.55 247.831 1570.56 251.176 1584.78 251.176C1599 251.176 1610.95 247.831 1620.64 241.14C1630.43 234.345 1637.8 224.463 1642.75 211.493C1647.79 198.419 1650.32 182.412 1650.32 163.471ZM1949.14 104.176C1948.32 93.8825 1944.45 85.8528 1937.55 80.0882C1930.75 74.3236 1920.39 71.4411 1906.48 71.4411C1897.62 71.4411 1890.35 72.5222 1884.69 74.6837C1879.12 76.7427 1875 79.5736 1872.32 83.1763C1869.64 86.7795 1868.25 90.8972 1868.15 95.5294C1867.94 99.3382 1868.61 102.787 1870.16 105.875C1871.81 108.86 1874.38 111.588 1877.88 114.059C1881.39 116.426 1885.87 118.588 1891.33 120.544C1896.8 122.5 1903.29 124.25 1910.81 125.794L1936.78 131.353C1954.3 135.059 1969.29 139.948 1981.76 146.022C1994.23 152.095 2004.43 159.25 2012.37 167.485C2020.3 175.618 2026.12 184.78 2029.83 194.971C2033.64 205.162 2035.6 216.279 2035.7 228.324C2035.6 249.118 2030.4 266.721 2020.09 281.132C2009.79 295.544 1995.05 306.508 1975.88 314.022C1956.82 321.537 1933.89 325.294 1907.1 325.294C1879.58 325.294 1855.58 321.228 1835.07 313.096C1814.67 304.963 1798.8 292.456 1787.46 275.574C1776.23 258.588 1770.56 236.868 1770.46 210.412H1852.07C1852.59 220.088 1855.01 228.221 1859.34 234.809C1863.67 241.397 1869.75 246.39 1877.58 249.787C1885.51 253.184 1894.94 254.882 1905.86 254.882C1915.04 254.882 1922.71 253.75 1928.89 251.485C1935.08 249.22 1939.77 246.081 1942.96 242.066C1946.15 238.051 1947.8 233.471 1947.91 228.324C1947.8 223.485 1946.21 219.265 1943.12 215.662C1940.13 211.956 1935.18 208.662 1928.28 205.779C1921.37 202.794 1912.05 200.015 1900.3 197.441L1868.77 190.647C1840.74 184.574 1818.63 174.434 1802.46 160.228C1786.38 145.919 1778.39 126.412 1778.5 101.706C1778.39 81.6323 1783.75 64.0808 1794.57 49.0513C1805.5 33.9191 1820.59 22.1324 1839.86 13.6912C1859.24 5.25002 1881.44 1.02942 1906.48 1.02942C1932.04 1.02942 1954.14 5.30147 1972.79 13.8456C1991.45 22.3897 2005.82 34.4338 2015.92 49.978C2026.12 65.4192 2031.27 83.4852 2031.38 104.176H1949.14ZM2059.74 74.5292V5.35297H2334.88V74.5292H2239.66V321.588H2154.95V74.5292H2059.74ZM2453.16 5.35297V321.588H2367.22V5.35297H2453.16ZM2789.43 123.941H2702.25C2701.63 116.735 2699.99 110.198 2697.31 104.331C2694.73 98.4631 2691.12 93.4191 2686.49 89.1986C2681.96 84.8749 2676.44 81.5811 2669.95 79.3164C2663.46 76.9484 2656.09 75.7649 2647.85 75.7649C2633.42 75.7649 2621.21 79.2647 2611.21 86.2649C2601.32 93.2647 2593.79 103.301 2588.64 116.375C2583.59 129.448 2581.07 145.147 2581.07 163.471C2581.07 182.823 2583.65 199.037 2588.8 212.11C2594.05 225.081 2601.63 234.86 2611.52 241.448C2621.41 247.934 2633.31 251.176 2647.22 251.176C2655.16 251.176 2662.27 250.198 2668.56 248.243C2674.84 246.184 2680.31 243.25 2684.94 239.441C2689.58 235.632 2693.34 231.052 2696.22 225.698C2699.21 220.243 2701.23 214.118 2702.25 207.323L2789.43 207.941C2788.4 221.323 2784.64 234.963 2778.15 248.86C2771.66 262.654 2762.44 275.419 2750.48 287.154C2738.63 298.787 2723.95 308.154 2706.43 315.258C2688.91 322.361 2668.56 325.912 2645.37 325.912C2616.31 325.912 2590.24 319.684 2567.16 307.228C2544.18 294.772 2525.99 276.449 2512.59 252.257C2499.3 228.066 2492.66 198.471 2492.66 163.471C2492.66 128.265 2499.46 98.6175 2513.06 74.5292C2526.66 50.3381 2545 32.0662 2568.09 19.7132C2591.17 7.25736 2616.93 1.02942 2645.37 1.02942C2665.36 1.02942 2683.76 3.75736 2700.55 9.21325C2717.35 14.6691 2732.08 22.6471 2744.76 33.1471C2757.43 43.5441 2767.64 56.3604 2775.37 71.5955C2783.09 86.8311 2787.78 104.279 2789.43 123.941Z" fill="transparent" stroke="#000" />
</svg>
